<svg viewBox="0 0 1000 1000" xmlns="http://www.w3.org/2000/svg"><path d="M282.13 73a51.57 51.57 0 0 0 2.77-12.2c.25-4.16-.6-8.53-3.2-11.79-1.85-2.32-4.43-3.92-7-5.48a27.21 27.21 0 0 0-6.53-3.23c-1.7-.49-3.7-.57-5.06.56-1.8 1.5-1.57 4.43-.35 6.42s3.16 3.44 4.67 5.22a1.34 1.34 0 0 1 .34.63 1.44 1.44 0 0 1-.46 1 17 17 0 0 0-3.41 14.72c.47 1.88 1.39 3.82 3.12 4.69" fill="#ffffff" class="fill-ffffff"></path><path d="M283 73.2c2.82-8.26 5.59-18.41-1-25.74a25 25 0 0 0-5.21-4.16 47.59 47.59 0 0 0-6-3.42c-3.39-1.52-8.64-2.28-10.14 2.19a7.4 7.4 0 0 0 .73 5.79c.39.69 4.57 5.58 4.84 5.25-1.14 1.45.9 3.53 2.05 2a2.86 2.86 0 0 0 .84-2.42 5.09 5.09 0 0 0-1.55-2.18c-1.3-1.36-2.9-2.6-3.8-4.29-.65-1.2-1-3.12 0-4.22 1.26-1.31 3.54-.66 5-.13a30.92 30.92 0 0 1 5.39 2.86 31.91 31.91 0 0 1 4.94 3.45 14.55 14.55 0 0 1 4.51 10.35c.23 4.82-1.15 9.55-2.46 14.13a.92.92 0 0 0 1.77.49z" fill="#000000" class="fill-000000"></path><path d="M473.14 273.27c-18.59-1-36.32-7.79-53.44-15.09-24.22-10.33-48.61-22.25-66.41-41.66-28.37-31-35.33-75.13-46-115.74-2.7-10.27-7.79-22.35-18.33-23.65.19-5.26-4.51-9.68-9.6-11s-10.46-.33-15.62.69c-4 .78-8.22 1.68-11.22 4.43s-4.06 8.05-1.08 10.83c-6.72.51-8.18 9.67-7.58 16.37a549.22 549.22 0 0 0 23.45 116.8c4.27 13.47 9.13 26.9 16.75 38.79 12.78 20 32.51 34.32 52.49 47a623.54 623.54 0 0 0 99.58 51.31" fill="#ffffff" class="fill-ffffff"></path><path d="M473.14 272.27C451.5 271 431 262 411.5 253.21c-17.92-8.06-35.64-17.4-50.25-30.73-13.94-12.72-23.89-28.89-31-46.26s-11.67-35.72-16.13-53.94c-2.16-8.82-4-17.85-6.82-26.49-2.31-7-5.94-14.91-12.85-18.44a16.18 16.18 0 0 0-5.12-1.61l1 1.39a12 12 0 0 0-4.89-9.51 18.25 18.25 0 0 0-11.5-3.62A60.32 60.32 0 0 0 260 66.13c-3.84.94-7.85 2.57-10.09 6s-2.44 8 .5 11l1-2.49c-9.65 1-9.46 13.45-8.79 20.56q1.83 19.41 5 38.66a549.51 549.51 0 0 0 18.19 75.81c3.67 11.6 7.77 23.17 13.71 33.84a111.58 111.58 0 0 0 21.23 26.75 207 207 0 0 0 26.88 20.93c10.21 6.84 20.71 13.26 31.35 19.4a633.79 633.79 0 0 0 68.06 34q4.26 1.83 8.56 3.58c2.14.88 3.07-2.6.95-3.46A630.91 630.91 0 0 1 370 319q-16.14-8.88-31.74-18.73A273.93 273.93 0 0 1 310.91 281a125.56 125.56 0 0 1-22.85-23.78c-6.87-9.64-11.73-20.48-15.68-31.6a500.08 500.08 0 0 1-19.27-72.31q-3.62-18.63-5.93-37.46c-.74-6.07-1.54-12.18-1.91-18.28-.24-3.79 0-8.29 2.18-11.55a5.43 5.43 0 0 1 4-2.52 1.47 1.47 0 0 0 1-2.48c-2.77-2.78-.9-7.35 1.83-9.4 3.54-2.64 8.46-3.23 12.69-4 4.58-.82 9.79-1.44 14.15.62 3.48 1.64 6.44 4.82 6.39 8.85a1.44 1.44 0 0 0 1.05 1.38C296.58 79.6 301 87 303.65 94a116.23 116.23 0 0 1 3.59 12.3c1.15 4.53 2.27 9.08 3.39 13.63 4.51 18.39 9 36.89 15.92 54.55 6.77 17.23 16 33.58 29.26 46.7 14 13.93 31.48 23.77 49.31 32 9.37 4.33 18.9 8.45 28.58 12.06 10.21 3.8 20.7 6.94 31.52 8.36 2.63.35 5.27.58 7.92.71 1.29.07 1.28-1.92 0-2zM207.56 104.13c9.8-3.22 17.83-9.95 24.61-17.54a125.06 125.06 0 0 0 9.65-12.24 44.21 44.21 0 0 0 7-14.33c2.09-8.45-.43-18.81-8.46-23.34-4.82-2.71-10.14-1.8-15.26-.5q-8.57 2.18-17 4.94a264.58 264.58 0 0 0-36.89 15.32c-1.81.92-.22 3.65 1.59 2.73A258 258 0 0 1 203.41 46q7.78-2.78 15.74-5.05c2.69-.77 5.39-1.51 8.1-2.17a19.9 19.9 0 0 1 8.18-.76c8.13 1.47 12.09 10.92 11.25 18.38-1.11 10-8.19 18.64-14.33 26.13-6.85 8.35-14.91 16.16-25.3 19.8-1.15.4-.67 2.24.51 1.85z" fill="#000000" class="fill-000000"></path><path d="M210 101.59q-14.49-30.42-30.34-60.15c-1.23-2.31-2.52-4.68-4.58-6.28-3.32-2.57-7.9-2.61-12.09-2.36-15.8.94-31.15 4.53-46.67 7.29C103.69 42.32 91 43.63 78.27 45c-11.34 1.24-22.92 2.12-30.67 11.68-6.32 7.8-6.85 18.92-4.6 28.71 4.35 19.41 13.41 39.29 22.43 56.94 9.51 18.61 21.2 36.27 35.86 51.24 5.72 5.85 12.89 11.61 21 11 6.4-.51 11.73-4.88 16.6-9 22.51-19.22 45-38.45 67.06-58.21 3.7-3.32 7.5-6.8 9.54-11.34a18.55 18.55 0 0 0-3.94-20.41" fill="#000000" class="fill-000000"></path><path d="M210.82 101.07q-12.31-26.31-25.64-52.15-1.68-3.26-3.37-6.51a44.91 44.91 0 0 0-3.21-5.65 13.47 13.47 0 0 0-9.88-5.52c-4.28-.5-8.74 0-13 .46-4.8.47-9.57 1.15-14.32 1.93-9.46 1.55-18.84 3.54-28.3 5.08s-19.29 2.62-29 3.64c-7.73.81-15.79 1.14-23.27 3.4C53.55 48 47 52.49 43.33 59.32c-3.79 7.07-4.24 15.36-3.06 23.15 1.33 8.8 4.34 17.51 7.45 25.81C51 117 54.8 125.57 58.88 134c3.87 8 7.92 15.83 12.44 23.44A214.69 214.69 0 0 0 86 179a141 141 0 0 0 17.24 19.22c6 5.38 13.67 9.77 22 7.82a28.62 28.62 0 0 0 10.7-5.63c3.57-2.75 6.92-5.79 10.34-8.73 14.83-12.75 29.66-25.51 44.29-38.5q5.53-4.91 11.05-9.84c3.34-3 6.8-5.87 9.91-9.08a24.9 24.9 0 0 0 6.32-10 19.82 19.82 0 0 0 .11-10.88 20.15 20.15 0 0 0-5.33-9c-1.37-1.35-3.48.76-2.11 2.11a17.22 17.22 0 0 1 3.39 18.9c-1.7 3.59-4.53 6.44-7.42 9.09-3.34 3.08-6.76 6.08-10.17 9.08-14.12 12.44-28.32 24.65-42.64 36.8L143 189.47c-3.26 2.77-6.45 5.69-9.9 8.23-3 2.23-6.43 4.28-10.23 4.77a16.93 16.93 0 0 1-10.45-2.41 42.76 42.76 0 0 1-9-7.2c-2.93-2.92-5.72-6-8.41-9.14a193.33 193.33 0 0 1-14.87-20 303.8 303.8 0 0 1-23.85-45.48 209.16 209.16 0 0 1-9.11-25c-2.15-7.46-4.05-15.17-3-23a24 24 0 0 1 11-17.51c5.89-3.6 13-4.56 19.7-5.33 8.95-1 17.9-2 26.83-3.17 9.18-1.24 18.27-2.93 27.36-4.7s18-3.48 27.11-4.5c4.09-.45 8.4-1.05 12.52-.6a10.84 10.84 0 0 1 5.2 1.82 13.46 13.46 0 0 1 3.6 4.46c4.55 7.95 8.71 16.17 12.93 24.29s8.48 16.5 12.6 24.8q3 6.12 6 12.27c.57 1.18 2.3.15 1.75-1z" fill="#000000" class="fill-000000"></path><path d="M210.82 101.07q-12.31-26.31-25.64-52.15-1.68-3.26-3.37-6.51a44.91 44.91 0 0 0-3.21-5.65 13.47 13.47 0 0 0-9.88-5.52c-4.28-.5-8.74 0-13 .46-4.8.47-9.57 1.15-14.32 1.93-9.46 1.55-18.84 3.54-28.3 5.08s-19.29 2.62-29 3.64c-7.73.81-15.79 1.14-23.27 3.4C53.55 48 47 52.49 43.33 59.32c-3.79 7.07-4.24 15.36-3.06 23.15 1.33 8.8 4.34 17.51 7.45 25.81C51 117 54.8 125.57 58.88 134c3.87 8 7.92 15.83 12.44 23.44A214.69 214.69 0 0 0 86 179a141 141 0 0 0 17.24 19.22c6 5.38 13.67 9.77 22 7.82a28.62 28.62 0 0 0 10.7-5.63c3.57-2.75 6.92-5.79 10.34-8.73 14.83-12.75 29.66-25.51 44.29-38.5q5.53-4.91 11.05-9.84c3.34-3 6.8-5.87 9.91-9.08a24.9 24.9 0 0 0 6.32-10 19.82 19.82 0 0 0 .11-10.88 20.15 20.15 0 0 0-5.33-9c-1.37-1.35-3.48.76-2.11 2.11a17.22 17.22 0 0 1 3.39 18.9c-1.7 3.59-4.53 6.44-7.42 9.09-3.34 3.08-6.76 6.08-10.17 9.08-14.12 12.44-28.32 24.65-42.64 36.8L143 189.47c-3.26 2.77-6.45 5.69-9.9 8.23-3 2.23-6.43 4.28-10.23 4.77a16.93 16.93 0 0 1-10.45-2.41 42.76 42.76 0 0 1-9-7.2c-2.93-2.92-5.72-6-8.41-9.14a193.33 193.33 0 0 1-14.87-20 303.8 303.8 0 0 1-23.85-45.48 209.16 209.16 0 0 1-9.11-25c-2.15-7.46-4.05-15.17-3-23a24 24 0 0 1 11-17.51c5.89-3.6 13-4.56 19.7-5.33 8.95-1 17.9-2 26.83-3.17 9.18-1.24 18.27-2.93 27.36-4.7s18-3.48 27.11-4.5c4.09-.45 8.4-1.05 12.52-.6a10.84 10.84 0 0 1 5.2 1.82 13.46 13.46 0 0 1 3.6 4.46c4.55 7.95 8.71 16.17 12.93 24.29s8.48 16.5 12.6 24.8q3 6.12 6 12.27c.57 1.18 2.3.15 1.75-1z" fill="#000000" class="fill-000000"></path><path d="M243.05 115.08c6.9-7.8 10.44-17.78 12.46-27.85a125.57 125.57 0 0 0 2.12-15.69c.39-5.45.22-11.1-1.54-16.32-2.81-8.4-11-16-20.43-14.78-5.36.7-9.21 4.57-12.87 8.22q-6.15 6.14-11.88 12.67a263.6 263.6 0 0 0-23.3 30.92c-1.1 1.71 1.63 3.29 2.73 1.59a256.8 256.8 0 0 1 19.21-26.24c3.42-4.09 7-8.09 10.65-12q2.79-3 5.67-5.81a32 32 0 0 1 5.71-4.79c7.76-4.7 17.17 1.06 20.77 8.37 2.27 4.61 2.84 9.88 2.76 15a108.39 108.39 0 0 1-1.53 15.24c-1.71 10.78-4.68 21.72-11.89 30.21-.79.93.53 2.29 1.36 1.35z" fill="#000000" class="fill-000000"></path><path d="M243.83 111.68Q216 92.73 187.28 75.07c-2.22-1.37-4.54-2.76-7.13-3.1C176 71.43 172 73.7 168.53 76c-13.17 8.79-24.6 19.64-36.61 29.86-9.73 8.28-20.06 15.83-30.32 23.43-9.16 6.79-18.71 13.39-20.58 25.56-1.52 9.95 3.64 19.82 10.48 27.15 13.56 14.55 31.42 27.15 48.11 37.83 17.61 11.26 36.61 20.6 56.82 26.13 7.89 2.15 17 3.5 23.7-1.18 5.26-3.67 7.66-10.13 9.77-16.19 9.72-27.95 19.44-55.91 28.48-84.1 1.53-4.74 3.05-9.65 2.52-14.6a18.58 18.58 0 0 0-13.7-15.64" fill="#ffffff" class="fill-ffffff"></path><path d="M244.35 110.8q-24-16.58-48.67-32.2c-2-1.27-4-2.53-6-3.78a43.09 43.09 0 0 0-5.86-3.36c-4.19-1.82-8.37-1.12-12.35.9a80.18 80.18 0 0 0-11.31 7.52c-3.62 2.68-7.13 5.5-10.59 8.39-7 5.85-13.8 12-20.83 17.82-7.38 6.11-15.06 11.82-22.78 17.49-6.24 4.59-13 8.92-18.39 14.5-5.26 5.44-8.83 12.37-8.92 20.06-.1 8.47 3.94 16.42 9.18 22.85 5.42 6.66 12.12 12.45 18.74 17.88 6.87 5.63 14.07 10.86 21.43 15.84s14.82 9.77 22.55 14.14a219.17 219.17 0 0 0 24.21 11.81 146 146 0 0 0 25 8.21c7.76 1.66 16.37 1.87 22.8-3.48s8.47-14.22 11-21.66c6.4-18.6 12.81-37.21 18.93-55.9 1.55-4.72 3.06-9.44 4.6-14.15 1.48-4.54 3.09-9.07 4.3-13.68 1.11-4.22 1.7-8.7.57-13a20 20 0 0 0-5.41-9.22 20.27 20.27 0 0 0-9-5c-1.86-.47-2.66 2.41-.79 2.89a17.24 17.24 0 0 1 12.45 14.19c.52 4.52-.82 9-2.18 13.27q-2.13 6.72-4.36 13.39-9 27-18.45 53.73l-4.68 13.35a117.34 117.34 0 0 1-4.22 11.22c-1.5 3.17-3.45 6.32-6.4 8.32a17.74 17.74 0 0 1-10.23 2.76 45.36 45.36 0 0 1-11.38-1.82c-4.12-1.11-8.2-2.4-12.23-3.82a193.68 193.68 0 0 1-23.53-10.2 308.31 308.31 0 0 1-43.11-27.24 206.6 206.6 0 0 1-19.39-16.17c-5.77-5.5-11.51-11.4-14.4-19a23.87 23.87 0 0 1 1.42-21c3.47-5.87 9.09-10.12 14.46-14.13 7.09-5.3 14.22-10.56 21.19-16s13.78-11.33 20.49-17.24 13.21-11.61 20.21-16.93a79.38 79.38 0 0 1 10.66-7.29 12.69 12.69 0 0 1 6-1.69 12.12 12.12 0 0 1 5.75 1.9c8.06 4.56 15.87 9.66 23.7 14.6s15.65 10 23.4 15q5.72 3.75 11.39 7.55c1.09.73 2.09-1 1-1.75z" fill="#000000" class="fill-000000"></path><g fill="#004e98" class="fill-18c4ff"><path d="M442.46 283.82a250.61 250.61 0 0 1-47.74-20.29 252.75 252.75 0 0 1-42.72-29.8 227.49 227.49 0 0 1-19-18.29 79.48 79.48 0 0 1-15.2-23.38c-3.6-8.75-6-18-8.53-27q-4.18-14.82-8.37-29.65l-8.33-29.67c-2.08-7.41-3.6-16.27-9.15-22a15.25 15.25 0 0 0-4.27-3.12c-1.5-.73-2.83 1.52-1.32 2.25 7.17 3.47 9.12 12.29 11.11 19.27l8.46 29.63q4.28 14.94 8.5 29.88c2.61 9.22 5 18.57 8.32 27.56a80.44 80.44 0 0 0 13.7 23.79 185.19 185.19 0 0 0 18.77 19 252.53 252.53 0 0 0 89.08 51.75q3.08 1 6.17 2a1 1 0 0 0 .52-1.88z"></path><path d="M444.61 306.87a334.37 334.37 0 0 1-54.18-23.61 327.42 327.42 0 0 1-48.94-32.69c-7.7-6.23-15.3-12.71-21.91-20.1-6.93-7.74-12-16.56-16.27-26-4.38-9.64-8.55-19.41-12.44-29.25a215.81 215.81 0 0 1-9.7-30c-2.41-10.25-3.16-20.67-4.54-31.09a96.65 96.65 0 0 0-2.94-14.8c-1.21-4.11-3.6-8.21-3.9-12.55a5.12 5.12 0 0 1 1.72-4.67c1.34-1.11-.59-3.06-1.92-1.92-3.16 2.7-2.73 7.1-1.65 10.71.62 2.08 1.52 4.06 2.25 6.11a67.35 67.35 0 0 1 2.18 7.61c2.36 10.34 2.71 21 4.42 31.44 3.51 21.39 12.2 41.45 20.77 61.21 4.16 9.58 8.36 19.25 14.58 27.71 6.07 8.26 13.58 15.29 21.36 21.91a330.27 330.27 0 0 0 49 34.44 323.39 323.39 0 0 0 54.64 25q3.48 1.22 7 2.34c1.16.38 1.65-1.44.5-1.82z"></path><path d="M255.65 84.87c-4.62 10.49.7 21.87 3.38 32.14 2.92 11.22 4.59 22.72 6.39 34.16s3.76 23.17 7.23 34.39a181.92 181.92 0 0 0 13.21 31.07c5.27 10 11.11 19.71 17.31 29.15 6 9.07 12.56 17.77 20.46 25.25 14.06 13.29 31.22 22.64 48.68 30.68 17.84 8.2 36.24 15.21 53.66 24.31 2.15 1.12 4.27 2.28 6.38 3.47a1.47 1.47 0 0 0 1.48-2.54c-16.93-9.46-35-16.58-52.71-24.38-17.4-7.67-34.81-16.1-49.57-28.26-16.68-13.73-28.24-32.28-38.86-50.83a212.12 212.12 0 0 1-14.64-30.23 180.45 180.45 0 0 1-8.59-33c-2-11.34-3.46-22.78-5.84-34.05q-1.75-8.34-4.28-16.46c-1.65-5.32-3.48-10.76-3.5-16.38a19.7 19.7 0 0 1 1.51-7.77c.41-1-1.28-1.68-1.7-.71z"></path><path d="M282.76 77.75a184.33 184.33 0 0 0-18.9 2.32c-3.11.56-6.24 1.16-9.31 1.91-1 .24-2.15.82-1.83 2.06a1.44 1.44 0 0 0 2.18.79 1.31 1.31 0 0 0 .46-1.74V83c-.67-1.49-2.89-.2-2.2 1.29v.08l.45-1.74.41-.1 1.1.63-.08-.1.13 1 .07-.19-.59.76c.8-.56 2.45-.65 3.41-.87 1.11-.26 2.22-.5 3.33-.74q3.45-.73 6.93-1.36 7.17-1.32 14.44-2.08c1.13-.13 1.17-1.9 0-1.81z"></path></g><path d="M276.81 45.7a53.93 53.93 0 0 0-3.27-11 18.13 18.13 0 0 0-7.41-8.5 8.65 8.65 0 0 0-5.13-1.15 5.08 5.08 0 0 0-4.15 3 5.47 5.47 0 0 0-8.93 3.4 4 4 0 0 0-6.81 4c-1.46-1-3.32-2-4.88-1.2-1.14.6-1.6 2-1.87 3.23a25.91 25.91 0 0 0 .13 11.49c.4 1.66 1.45 3.61 3.14 3.43a3.36 3.36 0 0 0 2.21-1.62 14.81 14.81 0 0 0 2.56-5.81 10.79 10.79 0 0 0 3.67 6.44 2.53 2.53 0 0 0 1.47.72c1.28 0 2-1.43 2.24-2.68a21.66 21.66 0 0 0 0-8.82c.92 2.83 2.08 6 4.75 7.27a2 2 0 0 0 2.16 0 2.24 2.24 0 0 0 .53-1.26 22.57 22.57 0 0 0-.47-10.11 35.16 35.16 0 0 0 2 4.45c.34.64.8 1.34 1.51 1.43a2.15 2.15 0 0 0 1.79-1 12.17 12.17 0 0 0 2.88-8.55 10.15 10.15 0 0 0 1.32 4.14" fill="#ffffff" class="fill-ffffff"></path><path d="M277.72 45.45c-1.31-6.2-2.81-12.71-7.35-17.42a13.28 13.28 0 0 0-7.61-4.2 6.7 6.7 0 0 0-7 3.54l2-.26a6.91 6.91 0 0 0-11.2 3.95l2.33-.62a5.37 5.37 0 0 0-9.18 5.33l2.11-1.63c-1.5-1-3.36-2-5.25-1.61a4.66 4.66 0 0 0-3.24 3.12c-1.35 3.56-1.29 7.92-.7 11.62.43 2.69 1.74 7.18 5.38 6.49 1.64-.31 2.71-1.68 3.55-3a16.7 16.7 0 0 0 2.19-5.46H241a12.54 12.54 0 0 0 2.76 5.78c1.26 1.5 3.28 3.18 5.29 2 1.71-1 2.09-3.26 2.32-5.05a23.54 23.54 0 0 0-.3-7.81l-2.69.74a19.09 19.09 0 0 0 2.64 5.72c1.14 1.52 3.06 3.16 5.11 2.84 2.46-.38 2.57-3.26 2.73-5.24a24.6 24.6 0 0 0-.82-8.19l-2.7.75c.93 2.54 3 9 6.81 6.25 3-2.18 4.23-6.78 4.08-10.28h-2.8a12.67 12.67 0 0 0 1.57 4.92 1.4 1.4 0 0 0 2.41-1.41 9.28 9.28 0 0 1-1.18-3.53c-.19-1.75-2.87-1.84-2.8 0a11.05 11.05 0 0 1-2 6.89c-.18.26-.69 1.14-1 1.19s-.53-.58-.68-.88a30.43 30.43 0 0 1-1.72-3.92c-.61-1.66-3.18-1-2.7.75a22 22 0 0 1 .78 5.35 24.05 24.05 0 0 1-.1 2.55c-.05.5-.12 1-.21 1.47s0 .5-.34.54c-1 .12-2.31-1.79-2.73-2.51a19.61 19.61 0 0 1-1.67-4 1.4 1.4 0 0 0-2.69.74 21.25 21.25 0 0 1 .38 5c-.05 1.33-.07 3.16-.8 4.33-.41.66-.74.3-1.25-.14a8.49 8.49 0 0 1-1.36-1.51 9.91 9.91 0 0 1-1.64-4.05 1.42 1.42 0 0 0-2.71 0 14.1 14.1 0 0 1-1.17 3.41 6.83 6.83 0 0 1-2 2.73c-1.72 1-2.28-3.92-2.39-4.75a24.61 24.61 0 0 1 .26-7.94c.17-.83.37-2.19 1.24-2.59 1.1-.52 2.55.6 3.41 1.18a1.45 1.45 0 0 0 2.14-1.63 2.58 2.58 0 0 1 4.44-2.58 1.41 1.41 0 0 0 2.33-.62 4.23 4.23 0 0 1 6.93-2.64 1.31 1.31 0 0 0 1.78-.47c1.08-2.48 3.88-2.84 6.21-2a13.47 13.47 0 0 1 5.9 4.46c3.38 4.22 4.62 9.68 5.83 14.83.28 1.19 2.07.68 1.82-.5z" fill="#000000" class="fill-000000"></path><path d="M328.28 70.48c-4.72-8.9-12.51-15.56-20.9-20.89a123.33 123.33 0 0 0-14-7.63c-5.07-2.37-10.43-4.29-16.07-4.62-8.9-.51-19.14 4.4-21.46 13.66-1.34 5.34 1 10.37 3.11 15.14q3.56 7.88 7.63 15.5a261.1 261.1 0 0 0 20.69 32.6c1.2 1.62 3.94 0 2.73-1.59a259.86 259.86 0 0 1-17.7-27q-4-7-7.56-14.26-1.75-3.66-3.44-7.39a33.14 33.14 0 0 1-2.69-7.38c-1.7-8.93 7.24-15.85 15.36-16.48 10.5-.82 20.55 5 29.36 10 9.23 5.26 18 11.88 23.28 21.33.6 1.08 2.23.12 1.66-1z" fill="#000000" class="fill-000000"></path><path d="M325.41 68.64q-27.53 19.42-54.15 40.08c-2.06 1.6-4.18 3.28-5.4 5.58-2 3.71-1.24 8.22-.29 12.31 3.6 15.42 9.74 29.93 15.09 44.76 4.33 12 7.77 24.35 11.28 36.63 3.14 11 6 22.22 16.7 28.25 8.75 4.91 19.8 3.54 29.08-.28 18.39-7.58 36.46-19.87 52.32-31.75 16.73-12.52 32.16-27 44.43-44 4.8-6.63 9.26-14.68 7.23-22.6-1.59-6.21-6.79-10.73-11.72-14.83-22.76-18.93-45.52-37.86-68.72-56.23-3.91-3.09-8-6.24-12.8-7.48A18.55 18.55 0 0 0 329 66.4" fill="#004e98" class="fill-18c4ff"></path><path d="M324.9 67.76q-23.83 16.58-47 34.07a811.77 811.77 0 0 0-5.83 4.42 53.26 53.26 0 0 0-5 4.06 13.48 13.48 0 0 0-3.95 11.06c.32 4.48 1.62 8.94 2.83 13.26 1.24 4.47 2.68 8.89 4.2 13.28 3.09 8.87 6.55 17.61 9.61 26.49 3.14 9.09 5.81 18.34 8.42 27.6 2.1 7.46 3.82 15.2 7.12 22.24 3.18 6.8 8.37 12.43 15.41 15.27 7.71 3.12 16.57 2.28 24.31-.29 8.49-2.82 16.61-7.23 24.31-11.71 8-4.65 15.69-9.79 23.21-15.18 7.17-5.14 14.22-10.44 20.95-16.14a212.88 212.88 0 0 0 18.77-17.89 147.51 147.51 0 0 0 16.17-20.3c4.62-7.18 7.78-15.86 4-24.11a29.23 29.23 0 0 0-7.17-9.11c-3.34-3-6.91-5.83-10.39-8.7-15.07-12.49-30.17-24.95-45.46-37.18q-5.78-4.62-11.58-9.22c-3.52-2.81-7-5.76-10.72-8.29A24.48 24.48 0 0 0 346 57a19.84 19.84 0 0 0-10.53 1.92 20 20 0 0 0-7.76 6.74c-1.1 1.59 1.49 3.08 2.58 1.51A17.19 17.19 0 0 1 348 60.66c3.94 1 7.36 3.41 10.54 5.87 3.62 2.81 7.2 5.69 10.77 8.58q21.84 17.69 43.37 35.76l10.78 9c3.22 2.7 6.55 5.31 9.59 8.21 2.59 2.47 5.11 5.31 6.3 8.74a16.92 16.92 0 0 1-.45 11.42 43.83 43.83 0 0 1-5.9 10.6c-2.44 3.4-5 6.69-7.73 9.9a198.31 198.31 0 0 1-17 17.75 302.17 302.17 0 0 1-40.49 30.89 213.43 213.43 0 0 1-23 13.16c-7.23 3.5-14.79 6.74-23 6.77a23.78 23.78 0 0 1-19-8.77c-4.18-5.18-6.13-11.83-8-18.11-2.49-8.52-4.9-17.07-7.56-25.54-2.74-8.7-5.91-17.23-9.14-25.75s-6.34-16.81-8.88-25.42c-1.2-4.06-2.6-8.32-2.93-12.56a11.78 11.78 0 0 1 .74-5.7 13 13 0 0 1 3.7-4.38c7-5.92 14.49-11.37 21.79-16.91S307.34 83 314.84 77.53q5.52-4 11.08-8c1.05-.75.06-2.5-1-1.75z" fill="#004e98" class="fill-18c4ff"></path><path d="M517.86 458.49a728.45 728.45 0 0 0-7.24 146.29c2.25 43.67 9.84 90.22 39.8 122.06 10.94 11.62 25 20.94 40.77 23.36 22.31 3.44 44.51-7.24 62.47-20.91 51.65-39.32 79-102.17 101.07-163.22 3.6-9.94 8.58-21.29 18.84-23.82 4.59-1.13 10-.38 13.5-3.52 5.22-4.64 2-13.15-1.54-19.17-7.76-13.23-18.22-28.12-33.56-28.27-13.53-.14-23.89 11.4-32.62 21.74-28.92 34.22-85.16 84.48-100.78 114-4.16 7.85-1.6 20.25-6 28 10.83-19 10.48-79.75 9.29-100.62-1.52-26.57-4.25-40.18-11-65.94-5.64-21.54-12.17-53.89-32-66.89" fill="#000000" class="fill-000000"></path><path d="M516.91 458.23a732 732 0 0 0-8.49 114.25c.17 32.68 1.47 66.23 10.26 97.9 8 28.79 23.79 58.08 50.43 73.5a62.57 62.57 0 0 0 21.89 7.93 63.57 63.57 0 0 0 24.34-1.24c16.06-3.85 30.42-12.75 43.18-23 24.08-19.29 43-44.21 58.17-70.92 15.37-27.07 27.12-56 37.79-85.24 2.4-6.58 4.58-13.37 8.53-19.23a21.7 21.7 0 0 1 6.87-6.75c3.28-1.91 6.89-2.07 10.56-2.56 3.39-.46 6.72-1.48 8.89-4.31a11.49 11.49 0 0 0 1.82-8.89c-1-6.82-5.36-13.08-9.13-18.69-7.46-11.1-18.3-22.92-33-21.27s-24.41 14.61-33.37 24.94c-18.35 21.19-38.58 40.7-57.84 61.06-9.14 9.66-18.18 19.46-26.53 29.83-3.52 4.38-6.94 8.86-10 13.55s-5.72 9.25-6.58 14.85c-1 6.58-.31 14.12-3.62 20.13-1.07 1.94 1.89 3.68 3 1.74 2.8-5 4.26-10.66 5.42-16.2a196 196 0 0 0 3.11-22.37 451.06 451.06 0 0 0 1.51-46.94 324.31 324.31 0 0 0-3.8-47.82c-1.6-9.74-3.88-19.36-6.33-28.93-2.15-8.44-4.23-16.91-6.59-25.29a156.52 156.52 0 0 0-8.86-24.72c-3.51-7.41-8-14.61-14.31-20a46.55 46.55 0 0 0-4.6-3.43c-1.7-1.13-3.28 1.6-1.59 2.72 6.56 4.35 11.46 11 15.2 17.84a122.69 122.69 0 0 1 9.52 23.9c2.32 7.7 4.2 15.52 6.22 23.31 2.53 9.73 5 19.46 6.93 29.34a296 296 0 0 1 4.69 48.46c.35 15 .13 30-.91 45-.53 7.64-1.27 15.27-2.54 22.82-1 5.94-2.22 12-4.59 17.61a30.09 30.09 0 0 1-1.46 3l3 1.74c3.39-6.15 3-13.47 3.86-20.23a24.58 24.58 0 0 1 2.7-8.78c1.13-2 2.36-4 3.64-6 6.34-9.63 13.91-18.43 21.57-27 18.59-20.84 38.65-40.42 57.8-60.84 4.3-4.58 8.56-9.2 12.7-13.92 4.43-5 8.6-10.31 13.4-15 5.05-4.93 11-9.43 18.08-10.76 6.71-1.25 13.32 1 18.69 5 5.53 4.12 9.86 9.77 13.6 15.51 3.49 5.36 8.17 11.81 8.07 18.5-.13 8.57-10.23 6.9-15.93 8.62-6.28 1.89-10.73 7-13.83 12.57-3.44 6.14-5.56 12.94-8 19.52-2.62 7.09-5.31 14.17-8.1 21.19-5.62 14.13-11.65 28.1-18.41 41.72-13.34 26.88-29.62 52.6-50.83 74-10.87 11-23 21.05-36.51 28.54-14.22 7.86-30.77 12.95-47.08 9.81-15.17-2.93-28.37-12.12-38.72-23.29a122.81 122.81 0 0 1-23.32-37.55C516 659 512.91 628 511.59 597.68A735.5 735.5 0 0 1 515.27 486c1-9.12 2.19-18.21 3.54-27.29.19-1.24-1.71-1.78-1.9-.52z" fill="#000000" class="fill-000000"></path><path d="M459.87 453.13a1222 1222 0 0 0-205 413c-7.39 26.65-17.35 57.53-43.45 66.65-3.84 1.34-8.46 2.63-9.81 6.46-1.67 4.71 2.88 9.17 7 11.95a176.63 176.63 0 0 0 37.06 18.91c17.47 6.46 40.43 8.61 51.62-6.28 4.9-6.53 6.28-14.93 8.37-22.82 11.48-43.43 36-77.46 60-114.42 15.62-24 30.17-48.89 41.74-75.16 5.75-13.06 12.42-27.4 15.16-41.48 2.52-12.94 3.39-25.51 8.19-38.23 10-26.51 42.73-57.7 58.27-81.38 26.77-40.77 52.26-96.08 40.61-143.43" fill="#000000" class="fill-000000"></path><path d="M459 452.65a1194.8 1194.8 0 0 0-73.31 107.26 1223 1223 0 0 0-110.03 234.32q-10.59 30.6-19.54 61.73c-5 17.37-9.24 35.35-18.37 51.13-4.12 7.12-9.35 13.8-16.1 18.6a44.37 44.37 0 0 1-11.32 5.79c-3.44 1.2-7.51 2.44-9.51 5.76-5.24 8.72 7.58 15.76 13.41 19.31a178.48 178.48 0 0 0 29.7 14.45c14.53 5.5 33.82 9.26 47.73.08 7.89-5.21 11.37-13.66 13.65-22.5a259 259 0 0 1 9.56-30.78c15.85-40.18 42.93-74.48 65.13-111.2a532.81 532.81 0 0 0 31.79-61.38c4.46-10.14 8.86-20.43 11.45-31.24 2.72-11.32 3.47-23 6.53-34.29 5-18.37 17.09-33.8 28.85-48.38 11.43-14.15 23.68-27.72 33.56-43a317.7 317.7 0 0 0 28.65-54.68c7.47-18.8 12.81-38.81 13.29-59.14a108.2 108.2 0 0 0-2.93-28c-.48-2-3.58-1.16-3.09.85 9.62 39.84-6.08 81.84-24.94 116.5a296.22 296.22 0 0 1-30.71 46c-11.74 14.4-24.2 28.42-34.18 44.15a92 92 0 0 0-11.15 24.05c-3.06 10.79-3.95 22-6.28 32.94s-6.75 21.61-11.28 31.93-9.24 20.67-14.44 30.73c-10.26 19.87-22 38.9-34.26 57.6-11.32 17.29-22.9 34.45-33 52.52s-18.6 37.21-23.84 57.32c-2.45 9.37-4.15 19.7-12.13 26.16-6.54 5.3-15.31 6.65-23.49 6.27-8.8-.4-17.32-2.81-25.48-6a174.11 174.11 0 0 1-29.62-15c-3.78-2.39-10.42-5.84-10.6-11-.18-5 6.49-6.22 10-7.56a48.83 48.83 0 0 0 18.81-13c11.15-12.3 17.07-28.57 21.78-44.21 5.87-19.5 11.14-39.15 17.39-58.54a1213.57 1213.57 0 0 1 45.28-118.91 1235.8 1235.8 0 0 1 57.69-113.99 1219.18 1219.18 0 0 1 68.53-106.55q9.12-12.66 18.52-25.13c.74-1-.92-1.94-1.66-1z" fill="#000000" class="fill-000000"></path><path d="M440.91 187.74a321 321 0 0 1-16.73 40.7c-2.08 4.21-4.32 8.69-3.82 13.37.61 5.76 5.23 10.29 10.13 13.39a2.72 2.72 0 0 1 1.36 1.42 2.91 2.91 0 0 1-.54 2 13.07 13.07 0 0 0 16.45 18.18 13.52 13.52 0 0 0 8.56 8 23.48 23.48 0 0 0 11.95.41 26.3 26.3 0 0 0 10.22-4.1c7-4.92 10.09-13.64 11.77-22a71.8 71.8 0 0 0 .85-26.17 96.34 96.34 0 0 0-4.43-15.58c-3.88-11-8.23-21.81-12.57-32.63-1-2.5-2.08-5.11-4.11-6.9" fill="#004e98" class="fill-18c4ff"></path><path d="M440 187.49c-2.84 8.1-6 16.06-9.44 23.93q-2.54 5.87-5.29 11.63c-1.76 3.67-3.8 7.27-5.19 11.1a16.29 16.29 0 0 0-.47 10.95 19.85 19.85 0 0 0 5.83 8.19 36.59 36.59 0 0 0 4.14 3.1c.23.15.74.37.82.66s-.43.92-.55 1.16a14.81 14.81 0 0 0-.28 12.26 14.77 14.77 0 0 0 18.62 7.86l-1.92-1.09a15.06 15.06 0 0 0 8.61 8.68c4.63 1.91 9.85 1.7 14.67.65a25.94 25.94 0 0 0 12.29-6.11 30 30 0 0 0 7.05-10.74 61.55 61.55 0 0 0 3.51-13 78.46 78.46 0 0 0 1.21-16.19c-.43-11-4.3-21.3-8.09-31.51-2.14-5.77-4.39-11.51-6.66-17.23-1.12-2.83-2.23-5.67-3.38-8.49a17.77 17.77 0 0 0-4.2-6.75c-1.7-1.55-4.22.94-2.54 2.54a14.77 14.77 0 0 1 3.26 5.2c1 2.27 1.86 4.57 2.78 6.85q2.87 7.08 5.61 14.2c1.85 4.81 3.66 9.63 5.34 14.5a83.84 83.84 0 0 1 3.86 14.25 70.37 70.37 0 0 1-1.83 28.51c-2 7.79-5.78 15.43-13.39 19a26.37 26.37 0 0 1-14.82 2.4c-4.36-.7-8.7-3.23-10.29-7.55a1.57 1.57 0 0 0-1.91-1.09c-5.81 2.23-12.85-.36-15.12-6.35a12 12 0 0 1 .14-9.07c.68-1.53 1.57-3 .48-4.61-.87-1.27-2.6-2-3.81-2.9a19.79 19.79 0 0 1-6.17-7.07c-1.58-3.29-1.27-6.83-.12-10.2a109.27 109.27 0 0 1 4.89-10.68q2.55-5.46 4.91-11c3.51-8.3 6.55-16.82 9.29-25.41.38-1.19-1.45-1.67-1.85-.51z" fill="#004e98" class="fill-18c4ff"></path><path d="m470.67 266.87 4.93 22.54a3.69 3.69 0 0 0 .53 1.42 3.56 3.56 0 0 0 2.61 1.1A44.86 44.86 0 0 0 513 281.05a8.79 8.79 0 0 0 3.06-4.28c.42-1.74-.15-3.54-.69-5.25a227.4 227.4 0 0 1-9-42" fill="#ffffff" class="fill-ffffff"></path><path d="M440.83 198.52c.41-3.63-.43-29.49 27.33-31a45.23 45.23 0 0 1 29.19 9.08 77.75 77.75 0 0 1 7.5 6.31c25.57 24.34 1.37 80.6-35.25 83.29-22.92 1.69-28.69-20.77-30.15-39.33-.75-9.44.32-18.93 1.38-28.35z" fill="#ffffff" class="fill-ffffff"></path><path d="M469.6 264.88c-5.46.37-10.87-.61-15.38-3.84-4-2.89-6.79-7.25-8.68-11.75a63 63 0 0 1-4-15.58 102.45 102.45 0 0 1-.67-22c.37-5.16 1.11-10.29 1.46-15.44a42.88 42.88 0 0 1 1.19-8c2-8 7.1-14.77 15.07-17.64 14-5 29.52 0 40.63 9 1.63 1.33 3.2 2.72 4.73 4.17 1.23 1.17 3.1-.69 1.86-1.86-6.09-5.77-12.92-10.68-20.92-13.41a43.75 43.75 0 0 0-22.49-1.65 25.84 25.84 0 0 0-20.4 17.43 40.8 40.8 0 0 0-2.13 9.89c-.35 3.55-.65 7.11-1 10.66-1.45 14.09-1.56 28.92 3.16 42.47a34.72 34.72 0 0 0 8.1 13.63 23.67 23.67 0 0 0 14.64 6.53 30.59 30.59 0 0 0 4.88 0c1.69-.11 1.7-2.75 0-2.63z" fill="#000000" class="fill-000000"></path><path d="M459.39 212.6c-.37 2-.76 3.94-1.23 5.89a1.38 1.38 0 0 1-.34.78c-.32.27-.77.43-1.11.67a6.31 6.31 0 0 0-1.88 2 5.78 5.78 0 0 0-.39 5.09 6.2 6.2 0 0 0 1.41 2.12c.52.5 1.39.83 1.78 1.32a1.77 1.77 0 0 0 2.48 0 1.79 1.79 0 0 0 0-2.48c-.76-1-2-1.08-2.49-2.31a2.7 2.7 0 0 1 1-3.05 4.07 4.07 0 0 0 1.45-1.76 9.38 9.38 0 0 0 .48-2.16c.22-1.86.41-3.72.66-5.58.16-1.16-1.57-1.7-1.8-.5zM505.11 216.35c-1.11-1.19-3-.7-3.94.44a6.49 6.49 0 0 0-1.1 1.93 2.08 2.08 0 0 0 0 1.21 1.53 1.53 0 0 0 1.66 1.12c.85-.12 1.25-1 1.35-1.77a2.69 2.69 0 0 0 0-.63 2 2 0 0 0-.22-.84 1.76 1.76 0 0 0-.58-.57 1.3 1.3 0 0 0-1.89.77 1.72 1.72 0 0 0 0 .9 1.63 1.63 0 0 1 .07.3l-.05-.36a1.34 1.34 0 0 1 0 .4l.05-.35a1.69 1.69 0 0 1-.12.44l.13-.31v.09l1.11-.64h-.06.34-.05l.31.13h-.05l.26.2-.06-.05.2.26a.56.56 0 0 0-.05-.08l.13.3a.75.75 0 0 1 0-.16l.05.34a1 1 0 0 1 0-.3l-.05.33a4.88 4.88 0 0 1 .31-.91l-.12.28a4.14 4.14 0 0 1 .48-.84l-.18.23a2.28 2.28 0 0 1 .38-.38l-.23.17a2.43 2.43 0 0 1 .44-.26l-.26.11a2.54 2.54 0 0 1 .6-.16h-.27a1.27 1.27 0 0 1 .39 0h-.26l.24.06c.09 0 .06.07-.09 0l.12.06a.9.9 0 0 0 1.17-.23.91.91 0 0 0-.07-1.19zM484 205.87a27.65 27.65 0 0 0-5.59-2.62 26.53 26.53 0 0 0-2.9-.81 11.18 11.18 0 0 0-3.2-.39 1.21 1.21 0 0 0-1.16 1 1.19 1.19 0 0 0 .85 1.29c1 .24 2 .26 3 .42s1.84.35 2.74.59a25.52 25.52 0 0 1 5.32 2.14 1 1 0 0 0 1-1.65zM445.65 206.79a15.62 15.62 0 0 1 3.57-1.77 13.7 13.7 0 0 1 2-.51 7 7 0 0 1 .87-.12 4.48 4.48 0 0 0 1.21-.18 1.12 1.12 0 0 0 .79-1 1.1 1.1 0 0 0-.79-1 5.71 5.71 0 0 0-2.56.17 14.66 14.66 0 0 0-2.15.62 13.86 13.86 0 0 0-2.11 1 13 13 0 0 0-1.94 1.44c-.8.69.24 2.05 1.13 1.47zM469.7 266.87a108.38 108.38 0 0 0 2.42 12.82l1.43 6.72c.37 1.72.44 4.2 1.71 5.54s3.05 1.36 4.68 1.49a42.8 42.8 0 0 0 5.43.1 46.56 46.56 0 0 0 10.87-1.77 44.17 44.17 0 0 0 18.61-10.53 8.61 8.61 0 0 0 2.65-4.54 12.43 12.43 0 0 0-.85-5.77c-1.29-4.1-2.48-8.24-3.54-12.41a187.7 187.7 0 0 1-5.25-29 1.5 1.5 0 1 0-3 .4c1.15 7.88 2.44 15.74 4.2 23.51q1.32 5.82 2.94 11.58.78 2.76 1.62 5.5c.57 1.82 1.56 4 1.12 5.89a7.5 7.5 0 0 1-2.72 3.67 38.36 38.36 0 0 1-4.17 3.23 42.71 42.71 0 0 1-8.57 4.5 43.72 43.72 0 0 1-19.77 2.8c-.81-.07-2 0-2.41-.83a11.71 11.71 0 0 1-.73-3.13l-1.51-6.71c-1-4.42-1.75-9.06-3.28-13.33-.34-1-2-.91-1.91.26z" fill="#000000" class="fill-000000"></path><path d="M472.3 274.31c1.05 2.14 3.86 2.6 6.24 2.61a46.24 46.24 0 0 0 21-5.08c6.38-3.25 9-8.2 14.39-12 2.39-1.66 6-2 8 0 3.07 3 1.05 8.63 3.54 12.12 1.83 2.57 5.4 3.06 8.55 3.15 16.93.5 20.68-3.32 35.82 4.26 17.54 8.79 22 29.55 19.66 47.52-3.47 26.2-4.66 50.38-.89 77.43 1.32 9.5 11.09 19.1 9.41 28.48-.62 3.46-3 6.34-5.37 8.9-31.22 32.9-98 48-136.62 19.43-21-15.59-10.24-37.88-10.72-59.6a149.48 149.48 0 0 0-6-40.15c-4.91-16.16-10.64-32.91-7.87-50 1-6.09 3.14-12.18 7.34-16.7 6.14-6.61 15.51-8.85 24.15-11.47 1.5-.46 3.32-1.38 3.2-2.95a7.94 7.94 0 0 0-.85-2.06c-1.25-3.22 2.76-5.84 6-7l.92 3.43" fill="#ffffff" class="fill-ffffff"></path><path d="M462.52 284.08a3.47 3.47 0 0 0 2.47-.14 4.36 4.36 0 0 0 2.27-1.61 3.44 3.44 0 0 0 .49-2.82 6.66 6.66 0 0 0-.59-1.34 5.43 5.43 0 0 1-.3-.59c.09.23-.05-.24-.06-.29s0-.09 0 .09a2.83 2.83 0 0 1 0-.29 3.37 3.37 0 0 0-.09-.71c0-.18 0-.17 0 0s0 .16 0 0c-.16.16 0-.1.08-.17a4.82 4.82 0 0 1 1.25-1.43 1.42 1.42 0 0 1 .21-.17l.56-.38c.34-.21.69-.41 1-.6l1.09-.52c.16-.07.48-.2.84-.32l-2-1.12.52 1.95a4.1 4.1 0 0 0 1 2.05 1.41 1.41 0 0 0 2.33-.62 4.13 4.13 0 0 0-.2-2.28l-.53-1.95a1.62 1.62 0 0 0-2-1.11 15.62 15.62 0 0 0-4.55 2.48 8.92 8.92 0 0 0-1.7 1.77 6.13 6.13 0 0 0-.49.82c-.1.22-.2.45-.28.68a2.76 2.76 0 0 0-.08.27 3.71 3.71 0 0 0-.4 1.39 4.82 4.82 0 0 0 .19 1.31 7.55 7.55 0 0 0 .59 1.37l.24.48v.14c0 .14.06.24 0 .07 0 .2 0 .2 0 0v.14c-.06.17-.06.17 0 0a1.58 1.58 0 0 1-.15.24c.18-.27-.07.08-.11.13a4.47 4.47 0 0 1-.43.44c-.47.43-1.3.75-1.68 1.38a1 1 0 0 0 .34 1.3z" fill="#000000" class="fill-000000"></path><path d="M471.49 274.79c2.09 4.07 8.2 3.38 11.95 3a48.4 48.4 0 0 0 15.56-4.26c4.35-2 7.63-5.14 11-8.47a22.38 22.38 0 0 1 5.54-4.5c1.77-.85 4.26-1 5.64.62s1.22 3.8 1.37 5.64a12.2 12.2 0 0 0 1.65 6c2.69 3.91 8 4 12.27 4s8.25-.26 12.38-.46a37 37 0 0 1 9.85.58c8.11 1.8 16.08 6.2 21.23 12.79 5 6.38 7.5 14.47 8.26 22.45.92 9.57-1 19-1.92 28.52a293.88 293.88 0 0 0-1.56 34.21q.15 8.67 1 17.29c.29 3 .65 6 1 9a37.69 37.69 0 0 0 1.39 7.38c1.48 4.4 3.91 8.4 5.9 12.57 1.81 3.81 3.55 8.27 2.29 12.51s-5.07 7.58-8.2 10.51a92.13 92.13 0 0 1-9 7.4 116.91 116.91 0 0 1-21 12 127.25 127.25 0 0 1-49 11.12c-16 .32-32.47-2.74-46.4-11-7.3-4.31-13.89-9.92-16.55-18.23-2.51-7.83-1.63-16.27-.73-24.29.48-4.28 1-8.57 1.29-12.87a114 114 0 0 0-.1-15.3 153.76 153.76 0 0 0-6.38-34.29c-1.72-5.6-3.65-11.17-5.07-16.85a1.4 1.4 0 0 0-2.7.74c1.49 5.94 3.1 11.8 4.89 17.66a145.26 145.26 0 0 1 4.23 17.47 130.32 130.32 0 0 1 1.92 32.57c-.69 8.56-2.35 17.11-2 25.73s3.24 16.75 9.49 22.9c5.93 5.85 13.76 10 21.46 13a90.65 90.65 0 0 0 23.93 5.49c17 1.65 34.49-.83 50.69-6.21 15.64-5.19 30.65-13.21 42.79-24.45 3.16-2.93 6.63-6.13 8.53-10.06 2.07-4.27 1.55-8.91-.09-13.23s-4.23-8.54-6.18-12.9c-2.17-4.88-2.56-10.17-3-15.43a272 272 0 0 1-.82-35.31c.23-5.75.64-11.49 1.19-17.22s1.38-11.5 2-17.26c1.76-16.34-2.28-34.9-16.49-44.79a46.19 46.19 0 0 0-12.39-5.92 34.26 34.26 0 0 0-10.69-1.56c-3.75 0-7.5.41-11.26.53-2.52.08-5.06.12-7.58 0-2-.11-4.24-.42-5.73-1.82s-1.63-3.8-1.81-5.77-.4-4.28-1.61-6.05c-2.79-4.08-8.17-3.16-11.6-.53-3.68 2.82-6.47 6.63-10.2 9.38C497.66 272 492 274 486.65 275a42.57 42.57 0 0 1-7.89.8c-2 0-4.53-.07-5.64-2-.61-1.06-2.19-.12-1.63 1zM453.15 215.38l-.1.25v-.06l-.16.21.05-.05-.22.17h.06l-.26.11h-.29.11-.31.08a2.76 2.76 0 0 0 .4.06h-.33.11l-.29-.12h.08l-.25-.2a.28.28 0 0 1 .09.1l-.19-.25a.57.57 0 0 1 .08.13l-.13-.3a.78.78 0 0 1 .07.25l-.05-.34a1.62 1.62 0 0 1 0 .44l.05-.35a1.35 1.35 0 0 1-.09.33l.14-.32-.07.12.2-.27v.05l1.3-.34.32.14h-.05l.27.21.21.27v-.05l.13.31a1.07 1.07 0 0 0-.23-.45 1.25 1.25 0 0 0-.87-.5 1.06 1.06 0 0 0-.53 0l-.32.14a1.27 1.27 0 0 0-.48.47l-.13.32a1.42 1.42 0 0 0 0 .71l.07.18c0 .06.05.11.07.17l.11.14.12.15.27.21.19.08.2.08a1.31 1.31 0 0 0 1.29-.34c.06-.06.1-.12.15-.18s.1-.12.14-.19a2.05 2.05 0 0 0 .18-.43 1.44 1.44 0 0 0 .08-.46.86.86 0 0 0 0-.16 4.38 4.38 0 0 0-.08-.62 1.11 1.11 0 0 0-.07-.26 3.65 3.65 0 0 0-.18-.41 2.27 2.27 0 0 0-.26-.35 1.3 1.3 0 0 0-.22-.19 1.7 1.7 0 0 0-.22-.15 2.33 2.33 0 0 0-.33-.14H453a2.08 2.08 0 0 0-.36 0h-.08a1.86 1.86 0 0 0-.34 0l-.29.12-.16.12-.15.12a1.64 1.64 0 0 0-.2.26l-.06.09a1.62 1.62 0 0 0-.16.61v.05a1.64 1.64 0 0 0 .05.32l.1.25a.87.87 0 0 0 .26.28.53.53 0 0 0 .23.13.86.86 0 0 0 .39.09 1.29 1.29 0 0 0 .51-.14.7.7 0 0 0 .28-.26.85.85 0 0 0 .19-.35zM476.64 215.38l-.11.25v-.06l-.16.21v-.05l-.21.17h.06l-.26.11h-.29.1-.3.08a2.63 2.63 0 0 0 .39.06h-.32.11l-.29-.12h.08l-.25-.2.09.1-.19-.25.08.13-.13-.3a2.33 2.33 0 0 1 .07.25l-.05-.34a1.62 1.62 0 0 1 0 .44v-.35a1.32 1.32 0 0 1-.08.33l.14-.32a.83.83 0 0 1-.08.12l.21-.27v.05l1.29-.34.32.14h-.05l.27.21.2.27a.17.17 0 0 1 0-.05l.13.31a1 1 0 0 0-.24-.45.87.87 0 0 0-.37-.34 1 1 0 0 0-.49-.16 1.06 1.06 0 0 0-.53 0l-.32.14a1.27 1.27 0 0 0-.48.47l-.13.32a1.23 1.23 0 0 0 0 .71l.07.18c0 .06.05.11.07.17a1.71 1.71 0 0 0 .11.14l.12.15.26.21.19.08.2.08a1.31 1.31 0 0 0 1.29-.34l.15-.18c0-.06.1-.12.14-.19a2.05 2.05 0 0 0 .18-.43 1.77 1.77 0 0 0 .08-.46.86.86 0 0 0 0-.16 4.38 4.38 0 0 0-.08-.62 2 2 0 0 0-.07-.26 3.65 3.65 0 0 0-.18-.41 2.33 2.33 0 0 0-.27-.35 1 1 0 0 0-.21-.19 1.3 1.3 0 0 0-.23-.15 1.83 1.83 0 0 0-.32-.14h-.05a2.08 2.08 0 0 0-.36 0H476a1.88 1.88 0 0 0-.33 0l-.3.12-.16.12-.15.12a2.48 2.48 0 0 0-.19.26l-.06.09a1.46 1.46 0 0 0-.16.61v.05a1.64 1.64 0 0 0 .05.32l.1.25a.77.77 0 0 0 .26.28.5.5 0 0 0 .22.13.93.93 0 0 0 .4.09 1.29 1.29 0 0 0 .51-.14.7.7 0 0 0 .28-.26.73.73 0 0 0 .18-.35zM460.39 237.35c.79 1 2.33.84 3.56.5a38.68 38.68 0 0 0 6.66-2.49 24 24 0 0 1 4.16-1.82 1.17 1.17 0 0 1 .74 0 1.19 1.19 0 0 1 .49.48 7.28 7.28 0 0 1 .95 4.93 14.38 14.38 0 0 1-1.71 4.8 10.73 10.73 0 0 1-2.35 3.14 4.86 4.86 0 0 1-3.63 1.26c-1.89-.22-3.35-1.87-4-3.65a27 27 0 0 1-1.06-5.61.55.55 0 0 0-.28.61" fill="#000000" class="fill-000000"></path><path d="M459.75 238c1.7 2.06 5.09.77 7.16.12a37.11 37.11 0 0 0 4.46-1.74c.64-.31 1.28-.62 1.93-.91.31-.14.63-.26.95-.38a3.22 3.22 0 0 0 .58-.18l.29-.08c-.29-.21-.36-.22-.22 0a4.89 4.89 0 0 0 .37.77 6.61 6.61 0 0 1 .31 2.95 11.55 11.55 0 0 1-1.38 4.07c-1 1.87-2.94 5-5.51 3.83-2.8-1.28-2.79-5.35-3.21-7.91-.18-1.14-1.58-1.17-2.3-.61a1.88 1.88 0 0 0-.56 1.93c.33 1.51 2.45 1 2.56-.35v-.18l-.18.67-.17.09-2-.82c.45 3.3.61 6.92 3.45 9.16s6.61 1.06 8.74-1.65 3.7-6.33 3.38-9.71c-.14-1.51-.65-3.67-2-4.56s-3.6.37-4.92 1a52.25 52.25 0 0 1-5.58 2.59c-1.17.44-3.76 1.77-4.85.61-.81-.86-2 .4-1.28 1.28zM484.43 259a14.34 14.34 0 0 1-6.25 3.79 29.28 29.28 0 0 1-8.13 1.91c-1.64.08-1.63 2.67 0 2.55a32.06 32.06 0 0 0 9-2.32 16.3 16.3 0 0 0 6.88-4.46c.85-1-.58-2.49-1.47-1.47z" fill="#000000" class="fill-000000"></path><g fill="#004e98" class="fill-18c4ff"><path d="M496.65 213.47c-.16-2.79 3.45-5.06 6.24-5.22a7 7 0 0 1 6.55 4.33 9.61 9.61 0 0 1-.54 8.09c-.71 1.37-1.69 2.6-2.28 4-1.61 3.94.11 8.39.06 12.65 0 4-1.62 7.73-3 11.43s-2.73 7.64-2.21 11.57 3.43 7.83 7.38 8.17c1.28.11 2.68-.12 3.76.56a8.61 8.61 0 0 1 1.81 2c2.87 3.45 8.36 2.73 12.5 1s8.13-4.32 10.55-8.12 3-9 .54-12.78c.58 1.92 2.85 2.92 4.83 2.69a10.93 10.93 0 0 0 5.3-2.65c3-2.4 5.87-5.5 6.3-9.34.64-5.56-3.86-10.21-7.75-14.24A126.18 126.18 0 0 1 530 206.23c-4.8-7.78-8.75-16.08-14-23.58s-12-14.31-20.54-17.52c-2.38-.9-5.07-1.49-7.44-.56a8.15 8.15 0 0 1-2.68.93 5.62 5.62 0 0 1-2.67-1c-8.69-4.89-20-2.39-28.08 3.47s-13.56 14.5-18.87 22.93a2.2 2.2 0 0 0-.48 1.55c.2.91 1.39 1.13 2.33 1.16 5.75.16 11.57.31 17.21-.86s11.16-3.82 14.72-8.34c-1.11 2-2.07 4.9-.26 6.33a4.59 4.59 0 0 0 2.44.75 26.85 26.85 0 0 0 17.76-4.75c-.63 4.75 2.33 9.12 4.8 13.23s4.6 9.27 2.38 13.51"></path><path d="M497.55 213.47c0-1.85 1.88-3.09 3.46-3.65a5.56 5.56 0 0 1 5.34.7 6.61 6.61 0 0 1 2.53 5.52c0 2.36-1.15 4.22-2.35 6.17a12.08 12.08 0 0 0-1.88 6.28c0 2.38.44 4.72.6 7.09.34 5-1.79 9.34-3.47 13.88-1.55 4.17-2.84 9-1.33 13.36 1.2 3.49 4 6.65 7.81 7.18.94.13 1.93 0 2.85.17 1.11.24 1.59 1.38 2.29 2.16a8.21 8.21 0 0 0 4.49 2.51c3.85.77 7.75-.43 11.21-2.08 4.09-2 8-4.92 10.16-9a13.51 13.51 0 0 0-.08-13.21c-.8-1.3-3.11-.47-2.56 1.07 1.29 3.58 5.39 4.44 8.63 3.09a20.87 20.87 0 0 0 8.52-7.31 11.49 11.49 0 0 0 1.32-10.62c-1.37-3.58-4-6.49-6.62-9.21a133 133 0 0 1-16.4-20.68c-4.84-7.64-8.74-15.85-13.76-23.39-4.31-6.5-9.48-12.5-16.09-16.63-3.26-2.05-7.18-4-11.09-4.2a8.7 8.7 0 0 0-2.87.31c-.93.26-1.91 1-2.89 1.07s-1.85-.79-2.62-1.18a21 21 0 0 0-2.81-1.2c-7.13-2.49-15.15-1-21.72 2.36-7.2 3.69-12.71 9.92-17.33 16.41-1.19 1.66-2.33 3.37-3.44 5.08a38.67 38.67 0 0 0-3.35 5.39c-2.09 4.86 5.79 4.21 8.3 4.23 8.29.08 17.2-.75 24.07-5.87a21.62 21.62 0 0 0 4.07-3.87l-2.23-1.72c-1.07 2-2.1 4.61-1 6.81 1.22 2.46 4.32 2.5 6.7 2.51a28.43 28.43 0 0 0 16.18-5.06l-2.11-1.21c-.53 4.8 2.07 9.07 4.49 13 2.29 3.73 5.14 8.69 3 13.1-.73 1.48 1.5 2.79 2.23 1.3 2.21-4.5.64-9.41-1.62-13.57-2.35-4.34-5.85-8.59-5.27-13.82a1.4 1.4 0 0 0-2.1-1.21 25.82 25.82 0 0 1-12.27 4.54 25.18 25.18 0 0 1-3.13.1 6.42 6.42 0 0 1-3.08-.45c-1.46-.94-.12-3.5.47-4.59.72-1.36-1.17-3-2.23-1.73-4.6 5.71-11.85 8.06-18.93 8.65-2.16.18-4.32.23-6.48.22a35.08 35.08 0 0 1-6-.15c-.52-.1-.34 0-.25-.31a5.47 5.47 0 0 1 .67-1.07l1.59-2.49q1.49-2.33 3-4.6c4.07-5.92 8.8-11.74 14.95-15.62 5.66-3.57 12.79-5.65 19.47-4.25a18 18 0 0 1 4.67 1.61c1.57.79 3 1.84 4.88 1.48a12.22 12.22 0 0 0 2.24-.87 6.42 6.42 0 0 1 2.94-.41 16.13 16.13 0 0 1 5.25 1.55c6.34 2.83 11.53 7.64 15.8 13 4.94 6.21 8.62 13.3 12.5 20.18A145.46 145.46 0 0 0 538 220q3.68 4.58 7.78 8.81c2.41 2.5 5 5.08 6.43 8.31a9 9 0 0 1-1.21 9.28 20.79 20.79 0 0 1-3.6 3.6 10.09 10.09 0 0 1-4.58 2.48c-1.32.2-3-.29-3.51-1.65l-2.56 1.08c2.2 3.57 1.54 8.12-.7 11.5s-6 5.77-9.74 7.29c-3 1.22-7.4 2.34-10.14 0-1.52-1.27-2.1-3.08-4.24-3.55-2-.43-3.77 0-5.53-1.13-3.49-2.32-4-6.95-3.24-10.73 1-4.67 3.33-8.9 4.36-13.55a20.88 20.88 0 0 0 .35-7.09 41.46 41.46 0 0 1-.65-6.84c.12-2.43 1.41-4.14 2.53-6.19a11.93 11.93 0 0 0 1.53-6c-.14-4.31-3.35-8.39-7.86-8.54-3.39-.12-7.84 2.64-7.69 6.39a.91.91 0 0 0 1.81 0z"></path><path d="M467.64 285.7c2.91 3.05 7 4.21 11.09 4.74a58.27 58.27 0 0 0 13.46.18c8.85-.91 17.54-3.79 24.57-9.36 4.41-3.5 7.94-7.93 11.42-12.33a1.39 1.39 0 1 0-2.2-1.69 78.4 78.4 0 0 1-9.05 10.54 38.2 38.2 0 0 1-10.59 6.83c-7.7 3.36-16.34 4.38-24.69 4-4.48-.22-9.41-.83-12.73-4.15-.82-.82-2.08.44-1.28 1.28z"></path><path d="M470.39 281.55a28.87 28.87 0 0 0 1.69 6.46 1 1 0 1 0 1.81-.76 28 28 0 0 1-1.8-6.16.89.89 0 0 0-1.08-.62.91.91 0 0 0-.62 1.08zM471.36 277.92a1 1 0 0 0 0-2 1 1 0 0 0 0 2zM478.21 277.4a27.06 27.06 0 0 0 2.41 12.76 1 1 0 0 0 1.8-1.05A25.59 25.59 0 0 1 480 277.4c0-1.15-1.72-1.13-1.79 0zM489.67 276.36c.36 2.6.78 5.18 1.28 7.75.23 1.22.46 2.44.77 3.64a3 3 0 0 0 1.88 2.34c1.37.47 2-1.72.6-2.17-.16-.06-.26-.47-.29-.6-.16-.51-.26-1-.38-1.56q-.37-1.61-.72-3.21-.74-3.33-1.31-6.69a1 1 0 0 0-1.17-.66 1 1 0 0 0-.66 1.16zM501.16 271.47a33.89 33.89 0 0 1 2.79 6.91 30.91 30.91 0 0 1 .77 3.56c.16 1 .11 2.79 1.46 3a1.13 1.13 0 0 0 1.25-.51 1.12 1.12 0 0 0-.17-1.34c-.22-.2-.19-.7-.25-1.06-.09-.6-.2-1.2-.32-1.79a31.33 31.33 0 0 0-.89-3.29 29.81 29.81 0 0 0-3-6.43 1 1 0 0 0-1.66 1zM510.57 266.6a26.13 26.13 0 0 1 4.77 11.73 1 1 0 0 0 1.28.72 1.07 1.07 0 0 0 .73-1.28 27.39 27.39 0 0 0-5.17-12.11 1 1 0 0 0-1.28-.33.93.93 0 0 0-.33 1.27z"></path></g><path d="M717.87 73a51.57 51.57 0 0 1-2.77-12.2c-.25-4.16.6-8.53 3.2-11.79 1.85-2.32 4.43-3.92 7-5.48a27.21 27.21 0 0 1 6.53-3.23c1.7-.49 3.7-.57 5.06.56 1.8 1.5 1.57 4.43.35 6.42s-3.16 3.44-4.67 5.22a1.34 1.34 0 0 0-.34.63 1.44 1.44 0 0 0 .46 1 17 17 0 0 1 3.41 14.72c-.47 1.88-1.39 3.82-3.12 4.69" fill="#ffffff" class="fill-ffffff"></path><path d="M718.75 72.71c-2.09-7.26-4.8-16.86.86-23.28a21.24 21.24 0 0 1 4.68-3.76 58.52 58.52 0 0 1 5.19-3c1.6-.8 3.71-1.71 5.53-1.21s2 2.25 1.57 3.76c-.55 2-2.26 3.38-3.66 4.78a9.45 9.45 0 0 0-1.92 2.23 2.61 2.61 0 0 0 .64 2.93c1.15 1.47 3.19-.6 2-2 .21.26.81-.6 1-.79.39-.4.79-.78 1.18-1.17a19.1 19.1 0 0 0 2.18-2.51 7.94 7.94 0 0 0 1.54-5.3 5.1 5.1 0 0 0-2.94-4.27 8.08 8.08 0 0 0-6 .15 31.56 31.56 0 0 0-6 3.13 37.28 37.28 0 0 0-5.47 3.87 16.59 16.59 0 0 0-5.21 11.29c-.42 5.4 1.34 10.6 3.06 15.64a.92.92 0 0 0 1.77-.49z" fill="#000000" class="fill-000000"></path><path d="M526.86 273.27c18.59-1 36.32-7.79 53.44-15.09 24.22-10.33 48.61-22.25 66.41-41.66 28.37-31 35.33-75.13 46-115.74 2.7-10.27 7.79-22.35 18.33-23.65-.19-5.26 4.51-9.68 9.6-11s10.46-.33 15.62.69c4 .78 8.22 1.68 11.22 4.43s4.06 8.05 1.08 10.83c6.72.51 8.18 9.67 7.58 16.37a549.22 549.22 0 0 1-23.45 116.8c-4.27 13.47-9.13 26.9-16.75 38.79-12.78 20-32.51 34.32-52.49 47a623.54 623.54 0 0 1-99.58 51.31" fill="#ffffff" class="fill-ffffff"></path><path d="M526.86 274.27c21.49-1.06 41.73-9.5 61.18-18 18.07-8 35.94-17.11 50.89-30.18 14.17-12.4 24.54-28.21 32-45.41s12.25-35.54 16.76-53.78c2.24-9 4.29-18.17 6.82-27.15 2-7.1 5.09-15.66 11.88-19.54a14.08 14.08 0 0 1 5.06-1.65 1.43 1.43 0 0 0 1.05-1.38c-.05-4 2.81-7.1 6.21-8.77 4.4-2.15 9.69-1.53 14.33-.7 4.18.75 9 1.33 12.5 3.85 2.83 2 4.87 6.68 2 9.53a1.47 1.47 0 0 0 1 2.48c4 .4 5.44 4.82 6 8.2.76 4.91-.13 10-.65 14.9q-2 18.87-5.28 37.56a545.78 545.78 0 0 1-18.15 73.12c-3.67 11.34-7.84 22.6-13.92 32.89a111.12 111.12 0 0 1-21.25 25.5 214.26 214.26 0 0 1-26.56 20.09c-10.05 6.6-20.34 12.83-30.78 18.78a615 615 0 0 1-66.16 32.62c-2.79 1.18-5.59 2.32-8.39 3.46-2.11.86-1.19 4.34 1 3.46a626 626 0 0 0 68.48-32.93q16.52-9.19 32.43-19.39a258.67 258.67 0 0 0 27.86-20.13 123.79 123.79 0 0 0 22.82-24.85c6.81-10.06 11.52-21.36 15.45-32.8a518.84 518.84 0 0 0 19.29-74.73q3.5-19 5.66-38.3.55-4.89 1-9.8a45.89 45.89 0 0 0 .31-7.32c-.23-3.84-1.11-8.35-4.08-11.08a8.37 8.37 0 0 0-5-2.16l1 2.49c2.62-2.63 2.68-6.56 1.17-9.77-1.7-3.61-5.33-5.6-9-6.72a63.6 63.6 0 0 0-13.61-2.49c-4.32-.31-8.85.24-12.53 2.68-3.51 2.33-6.08 6-6 10.33l1-1.39c-7.84 1.07-12.88 7.78-15.87 14.57-3.52 8-5.2 16.79-7.27 25.23-4.48 18.27-8.77 36.66-15.31 54.33-6.45 17.42-15.32 34.13-28.29 47.59-13.72 14.25-31.06 24.32-48.81 32.71-9.41 4.45-19 8.58-28.71 12.36-10.14 4-20.58 7.29-31.37 8.9q-4.07.6-8.16.84c-1.27.08-1.29 2.07 0 2zM793 102.28c-9.19-3.22-16.64-9.76-22.94-17a140 140 0 0 1-9-11.57 44.52 44.52 0 0 1-6.91-13.61c-2.07-7.65 0-17.59 7.79-21.27 4.75-2.24 10.22-.33 15 1q8 2.14 15.82 4.79a257.17 257.17 0 0 1 34.57 14.6c1.81.92 3.41-1.81 1.59-2.73a263.88 263.88 0 0 0-32.92-14q-8.37-2.9-16.91-5.21c-5.21-1.42-11.06-3.45-16.45-1.8-8.43 2.59-12.88 12.38-12 20.69 1.13 10.67 8.3 19.71 14.92 27.69 7.24 8.72 16 16.7 27 20.3 1.18.39 1.66-1.45.51-1.85z" fill="#000000" class="fill-000000"></path><path d="M790.05 101.59q14.49-30.42 30.34-60.15c1.23-2.31 2.52-4.68 4.58-6.28 3.32-2.57 7.9-2.61 12.09-2.36 15.8.94 31.15 4.53 46.67 7.29 12.58 2.23 25.31 3.54 38 4.92 11.34 1.23 22.92 2.11 30.67 11.67 6.32 7.8 6.85 18.92 4.65 28.71-4.35 19.41-13.41 39.29-22.43 56.94-9.51 18.61-21.2 36.27-35.86 51.24-5.72 5.85-12.89 11.61-21 11-6.4-.51-11.73-4.88-16.6-9-22.51-19.22-45-38.45-67.06-58.21-3.7-3.32-7.5-6.8-9.54-11.34a18.55 18.55 0 0 1 3.94-20.41" fill="#000000" class="fill-000000"></path><path d="M790.93 102.1q12.14-25 25.2-49.59c2.13-4 4.19-8 6.46-11.95a12.47 12.47 0 0 1 3.81-4.5 11.38 11.38 0 0 1 5.07-1.62c4.15-.41 8.46.18 12.57.65 4.56.51 9.09 1.21 13.61 2 9 1.56 18 3.5 27 5.09 9.2 1.63 18.49 2.77 27.77 3.84 7.68.88 15.58 1.32 23.11 3.12 6.79 1.63 13.09 5 16.82 11.14s4.37 14 3.3 21.08c-1.26 8.42-4.1 16.75-7 24.71-3.08 8.36-6.68 16.52-10.52 24.55-3.68 7.67-7.53 15.27-11.78 22.63-8.3 14.35-18.08 28-29.86 39.77-5.06 5-11.79 10.53-19.45 9.45-3.81-.54-7.22-2.63-10.26-4.89-3.45-2.56-6.65-5.48-9.92-8.26q-21.44-18.19-42.73-36.59c-7-6-14-12.05-20.74-18.3-2.88-2.66-5.69-5.53-7.34-9.13a16.45 16.45 0 0 1-1.06-9.91 17 17 0 0 1 4.53-8.81c1.37-1.35-.74-3.46-2.11-2.11a20 20 0 0 0-5.17 20.05 25.33 25.33 0 0 0 6.41 9.93c3.19 3.27 6.73 6.22 10.14 9.26q21.91 19.52 44.13 38.68l11 9.49c3.47 3 6.87 6.07 10.51 8.85a27.42 27.42 0 0 0 10.73 5.43 19.68 19.68 0 0 0 12-1.39c7.55-3.26 13.4-9.84 18.74-15.86a196.91 196.91 0 0 0 16-20.73c10-14.78 18.12-30.84 25.22-47.16a220.34 220.34 0 0 0 9.69-26.22c2.31-8 4.29-16.17 3.23-24.5-1-8-4.71-15.11-11.28-19.93-6-4.43-13.56-5.86-20.84-6.74-9-1.08-18.12-1.85-27.16-3-9.52-1.16-19-2.81-28.38-4.57S853.56 32.6 844 31.67c-4.33-.42-8.84-1-13.17-.38a13.35 13.35 0 0 0-9.7 5.8 53.08 53.08 0 0 0-3.2 5.76q-1.69 3.24-3.37 6.5-3.3 6.4-6.54 12.84-6.54 13-12.82 26.08-3.06 6.39-6.06 12.8c-.55 1.18 1.18 2.21 1.75 1z" fill="#000000" class="fill-000000"></path><path d="M790.93 102.1q12.14-25 25.2-49.59c2.13-4 4.19-8 6.46-11.95a12.47 12.47 0 0 1 3.81-4.5 11.38 11.38 0 0 1 5.07-1.62c4.15-.41 8.46.18 12.57.65 4.56.51 9.09 1.21 13.61 2 9 1.56 18 3.5 27 5.09 9.2 1.63 18.49 2.77 27.77 3.84 7.68.88 15.58 1.32 23.11 3.12 6.79 1.63 13.09 5 16.82 11.14s4.37 14 3.3 21.08c-1.26 8.42-4.1 16.75-7 24.71-3.08 8.36-6.68 16.52-10.52 24.55-3.68 7.67-7.53 15.27-11.78 22.63-8.3 14.35-18.08 28-29.86 39.77-5.06 5-11.79 10.53-19.45 9.45-3.81-.54-7.22-2.63-10.26-4.89-3.45-2.56-6.65-5.48-9.92-8.26q-21.44-18.19-42.73-36.59c-7-6-14-12.05-20.74-18.3-2.88-2.66-5.69-5.53-7.34-9.13a16.45 16.45 0 0 1-1.06-9.91 17 17 0 0 1 4.53-8.81c1.37-1.35-.74-3.46-2.11-2.11a20 20 0 0 0-5.17 20.05 25.33 25.33 0 0 0 6.41 9.93c3.19 3.27 6.73 6.22 10.14 9.26q21.91 19.52 44.13 38.68l11 9.49c3.47 3 6.87 6.07 10.51 8.85a27.42 27.42 0 0 0 10.73 5.43 19.68 19.68 0 0 0 12-1.39c7.55-3.26 13.4-9.84 18.74-15.86a196.91 196.91 0 0 0 16-20.73c10-14.78 18.12-30.84 25.22-47.16a220.34 220.34 0 0 0 9.69-26.22c2.31-8 4.29-16.17 3.23-24.5-1-8-4.71-15.11-11.28-19.93-6-4.43-13.56-5.86-20.84-6.74-9-1.08-18.12-1.85-27.16-3-9.52-1.16-19-2.81-28.38-4.57S853.56 32.6 844 31.67c-4.33-.42-8.84-1-13.17-.38a13.35 13.35 0 0 0-9.7 5.8 53.08 53.08 0 0 0-3.2 5.76q-1.69 3.24-3.37 6.5-3.3 6.4-6.54 12.84-6.54 13-12.82 26.08-3.06 6.39-6.06 12.8c-.55 1.18 1.18 2.21 1.75 1z" fill="#000000" class="fill-000000"></path><path d="M758.31 113.73c-6.42-7.55-9.55-17.16-11.31-26.73a138.44 138.44 0 0 1-1.93-14.77A42.23 42.23 0 0 1 746.24 57a19.86 19.86 0 0 1 7.55-10.8c3.31-2.29 7.48-3.63 11.48-2.58 4.8 1.27 8.39 5.72 11.72 9.13q5.67 5.81 11 12a257.18 257.18 0 0 1 21.69 29.16c1.1 1.7 3.83.12 2.73-1.59a264.58 264.58 0 0 0-20.67-27.92q-5.55-6.53-11.52-12.69c-3.73-3.85-7.6-8.46-12.7-10.48-8.59-3.38-18.25 2.77-22.12 10.37-4.95 9.77-3.24 21.62-1.57 32 1.83 11.3 5.41 22.77 13.12 31.48.83.94 2.15-.42 1.36-1.35z" fill="#000000" class="fill-000000"></path><path d="M756.17 111.68Q784 92.73 812.72 75.07c2.22-1.37 4.54-2.76 7.13-3.1C824 71.43 828 73.7 831.47 76c13.17 8.79 24.6 19.64 36.61 29.86 9.73 8.28 20.06 15.83 30.32 23.43 9.16 6.79 18.71 13.39 20.58 25.56 1.52 9.92-3.64 19.79-10.48 27.13-13.56 14.55-31.42 27.15-48.11 37.83-17.61 11.26-36.61 20.6-56.82 26.13-7.89 2.15-17 3.5-23.7-1.18-5.26-3.67-7.66-10.13-9.77-16.19-9.72-27.95-19.44-55.91-28.48-84.1-1.53-4.74-3-9.65-2.52-14.6a18.58 18.58 0 0 1 13.7-15.64" fill="#ffffff" class="fill-ffffff"></path><path d="M756.68 112.55q23.22-15.54 47-30.21c3.86-2.38 7.7-4.88 11.67-7.09a11.7 11.7 0 0 1 6-1.79 13.24 13.24 0 0 1 5.73 1.8 82.39 82.39 0 0 1 10.65 7.32c3.53 2.68 7 5.5 10.35 8.37 6.65 5.65 13.1 11.55 19.76 17.21 6.95 5.89 14.19 11.44 21.47 16.9 6.17 4.63 12.7 9 18.36 14.24 5 4.63 8.92 10.45 9.43 17.42.56 7.81-3.05 15.37-7.89 21.3-5.2 6.37-11.58 11.94-17.89 17.17-6.52 5.39-13.32 10.39-20.32 15.16s-14.13 9.43-21.46 13.69c-14.83 8.61-30.65 15.79-47.26 20.19-6.87 1.81-15.15 3.2-21.38-1.16-2.92-2-4.84-5.22-6.32-8.38-1.7-3.64-2.89-7.51-4.22-11.29q-9.42-26.79-18.61-53.67c-3.06-9-6.1-18-8.94-27-1.31-4.16-2.58-8.56-2-13a17.39 17.39 0 0 1 12.43-14c1.86-.48 1.07-3.36-.79-2.89a20 20 0 0 0-14.53 14.54c-1 4.26-.4 8.69.72 12.87 1.25 4.69 2.89 9.3 4.4 13.92q9.13 28 18.7 56 2.4 7 4.83 14.07c1.38 4 2.66 8.07 4.38 12a24.83 24.83 0 0 0 6.63 9.36 20.23 20.23 0 0 0 11 4.31c8.24.83 16.74-2 24.45-4.59A198.25 198.25 0 0 0 837.86 235a298.83 298.83 0 0 0 45.24-28.09A217.89 217.89 0 0 0 903.56 190c6.21-5.89 12.1-12.16 15.42-20.18a28.14 28.14 0 0 0-.46-23.26c-3.2-6.57-8.91-11.38-14.65-15.69-7.15-5.38-14.44-10.55-21.55-16-7.49-5.71-14.67-11.77-21.78-17.93C853.66 91 846.78 85 839.46 79.6a75.09 75.09 0 0 0-11.34-7.44c-4-1.93-8-2.44-12.15-.62A47.7 47.7 0 0 0 810.1 75l-6.19 3.91q-6.07 3.86-12.12 7.78-12.3 8-24.44 16.17-5.86 4-11.7 8c-1.06.74-.06 2.48 1 1.75z" fill="#000000" class="fill-000000"></path><g fill="#004e98" class="fill-18c4ff"><path d="M556.63 268.82c-6.22 18.87-4.09 40 5.08 57.54a72.2 72.2 0 0 0 9.54 13.95c1 1.13 2.64-.53 1.65-1.65-12.75-14.52-18.85-34.1-17.51-53.3a69.5 69.5 0 0 1 3-16c.36-1.15-1.42-1.63-1.8-.5z"></path><path d="M558.06 285.7a252.61 252.61 0 0 0 90.38-49.44A234.36 234.36 0 0 0 667.62 218a82.94 82.94 0 0 0 15.55-22.63c3.83-8.56 6.28-17.65 8.84-26.65q4.2-14.82 8.41-29.64l8.58-29.85c1.28-4.47 2.44-9 3.89-13.42 1.14-3.47 2.58-7 5-9.82a13.41 13.41 0 0 1 4.23-3.2c1.5-.73.19-3-1.32-2.25-6.8 3.33-9.45 11.09-11.37 17.88-2.79 9.84-5.53 19.69-8.3 29.53s-5.56 19.77-8.36 29.66c-2.66 9.41-5.09 18.93-8.27 28.18a79.66 79.66 0 0 1-13.15 24.55 176.69 176.69 0 0 1-18.68 19.23 251.3 251.3 0 0 1-41.76 30.74 249 249 0 0 1-47.19 21.53q-3.08 1-6.17 2a1 1 0 0 0 .52 1.88z"></path><path d="M555.89 308.69A321.82 321.82 0 0 0 611.08 285 329.49 329.49 0 0 0 661 251.52c7.86-6.38 15.62-13.05 22.26-20.72 6.89-8 11.87-17 16.16-26.57 4.39-9.79 8.66-19.66 12.57-29.65a210.61 210.61 0 0 0 9.72-30.68c2.33-10.44 2.93-21.08 4.52-31.62a80.88 80.88 0 0 1 3.59-15.21c1.38-3.88 3.51-7.91 3-12.16a7.08 7.08 0 0 0-2.4-4.66c-1.33-1.14-3.26.81-1.92 1.92 3.12 2.58 1.4 7.3.22 10.46a87.21 87.21 0 0 0-4.19 14.25c-1.94 10.21-2.29 20.64-4.12 30.87-3.75 20.89-12.28 40.49-20.66 59.84-4.06 9.38-8.28 18.76-14.44 27S671.71 239.51 664 246a325.44 325.44 0 0 1-48.22 33.76 332.65 332.65 0 0 1-53.45 24.7c-2.31.83-4.64 1.63-7 2.41-1.15.38-.66 2.2.5 1.82z"></path><path d="M742.65 85.58c2.2 5.25 1.64 10.88.31 16.27s-3.32 10.85-4.73 16.35c-2.84 11.08-4.5 22.41-6.3 33.69s-3.81 22.67-7.29 33.63a180.76 180.76 0 0 1-13.34 30.77c-5.26 9.82-11 19.4-17.2 28.68a135.8 135.8 0 0 1-20.4 24.76c-14 13-31.07 22.06-48.34 29.93-17.63 8-35.78 15-53 23.94-2.08 1.09-4.16 2.2-6.21 3.35-1.65.92-.17 3.47 1.48 2.54 17.11-9.67 35.46-16.83 53.39-24.78 17.68-7.84 35.22-16.55 50.12-29 16.73-14 28.4-33 39-51.82a212.73 212.73 0 0 0 14.52-30.53 184.5 184.5 0 0 0 8.48-33.55c2-11.51 3.45-23.1 5.86-34.53 1.18-5.62 2.7-11.13 4.35-16.63 1.57-5.26 3.07-10.8 2.74-16.33a21.47 21.47 0 0 0-1.79-7.4c-.42-1-2.11-.26-1.7.71z"></path><path d="M717.24 79.56q7.26.76 14.44 2.08 3.48.63 6.93 1.36c1.11.24 2.22.48 3.33.74 1 .22 2.61.31 3.41.87l-.59-.76.07.19.13-1-.08.1 1.1-.63.41.1.45 1.74v-.08c.69-1.49-1.53-2.78-2.2-1.29v.09a1.31 1.31 0 0 0 .46 1.74 1.44 1.44 0 0 0 2.18-.79c.34-1.23-.87-1.83-1.83-2.06-3.08-.74-6.19-1.35-9.31-1.91a184.33 184.33 0 0 0-18.9-2.32c-1.17-.09-1.14 1.68 0 1.81z"></path></g><path d="M723.19 45.7a53.93 53.93 0 0 1 3.27-11 18.13 18.13 0 0 1 7.41-8.5 8.65 8.65 0 0 1 5.13-1.15 5.08 5.08 0 0 1 4.15 3 5.47 5.47 0 0 1 8.93 3.4 4 4 0 0 1 6.81 4c1.46-1 3.32-2 4.88-1.2 1.14.6 1.6 2 1.87 3.23a25.91 25.91 0 0 1-.13 11.49c-.4 1.66-1.45 3.61-3.14 3.43a3.36 3.36 0 0 1-2.21-1.62 14.81 14.81 0 0 1-2.56-5.81 10.79 10.79 0 0 1-3.67 6.44 2.53 2.53 0 0 1-1.47.72c-1.28 0-2-1.43-2.24-2.68a21.66 21.66 0 0 1 0-8.82c-.92 2.83-2.08 6-4.75 7.27a2 2 0 0 1-2.16 0 2.24 2.24 0 0 1-.53-1.26 22.57 22.57 0 0 1 .47-10.11 35.16 35.16 0 0 1-2 4.45c-.34.64-.8 1.34-1.51 1.43a2.15 2.15 0 0 1-1.79-1 12.17 12.17 0 0 1-2.88-8.55 10.15 10.15 0 0 1-1.32 4.14" fill="#ffffff" class="fill-ffffff"></path><path d="M724.1 46c1.21-5.15 2.45-10.61 5.83-14.83a13.72 13.72 0 0 1 5.68-4.38c2.38-.9 5.31-.62 6.43 2a1.31 1.31 0 0 0 1.78.47 4.23 4.23 0 0 1 6.93 2.64 1.41 1.41 0 0 0 2.33.62 2.58 2.58 0 0 1 4.44 2.48 1.45 1.45 0 0 0 2.11 1.63c.85-.57 2.13-1.56 3.22-1.24s1.2 1.57 1.38 2.42a24.11 24.11 0 0 1 .31 8.17c-.12.9-.58 5.42-2.25 4.81-.92-.33-1.59-1.81-2-2.6a14.37 14.37 0 0 1-1.29-3.65 1.42 1.42 0 0 0-2.71 0 9.94 9.94 0 0 1-1.53 3.89A9.19 9.19 0 0 1 753.4 50c-.5.47-.95 1-1.4.28a9.09 9.09 0 0 1-.79-4.09 21.14 21.14 0 0 1 .37-5.21 1.4 1.4 0 0 0-2.69-.74 21 21 0 0 1-1.58 3.87c-.43.76-1.73 2.78-2.82 2.66-.35 0-.27-.1-.34-.54S744 45.37 744 45a19.8 19.8 0 0 1-.13-2.55 21.92 21.92 0 0 1 .78-5.59 1.4 1.4 0 0 0-2.7-.75 31.54 31.54 0 0 1-1.61 3.73c-.13.24-.48 1.11-.75 1.1s-.94-1-1.08-1.22a11.05 11.05 0 0 1-2-6.89c.07-1.84-2.61-1.75-2.8 0a9.22 9.22 0 0 1-1.18 3.53 1.4 1.4 0 0 0 2.47 1.37 12.67 12.67 0 0 0 1.57-4.94h-2.8c-.15 3.5 1.1 8.1 4.08 10.28 3.83 2.79 5.88-3.72 6.81-6.25l-2.7-.75a24.57 24.57 0 0 0-.83 8c.13 2 .21 5.08 2.74 5.47 2 .31 3.87-1.23 5-2.7a18.84 18.84 0 0 0 2.75-5.86l-2.69-.74a23.53 23.53 0 0 0-.33 7.58c.23 1.85.57 4.22 2.35 5.28 1.94 1.15 3.9-.4 5.16-1.83a12.59 12.59 0 0 0 2.89-5.98h-2.71a16.7 16.7 0 0 0 2.19 5.46c.84 1.33 1.91 2.71 3.55 3 3.64.67 5-3.78 5.38-6.49.59-3.7.65-8.06-.7-11.62a4.64 4.64 0 0 0-3.24-3.12c-1.88-.43-3.75.6-5.25 1.61l2.11 1.63a5.37 5.37 0 0 0-9.18-5.33l2.33.62a6.91 6.91 0 0 0-11.2-3.95l2 .26a6.65 6.65 0 0 0-6.83-3.56 13.18 13.18 0 0 0-7.82 4.2c-4.55 4.7-6 11.23-7.35 17.42-.25 1.18 1.54 1.69 1.82.5z" fill="#000000" class="fill-000000"></path><path d="M673.38 71.45C678 63.09 685.49 56.9 693.54 52a145.27 145.27 0 0 1 12.92-7c4.87-2.34 10.09-4.39 15.52-4.8a20.19 20.19 0 0 1 13 3.15c3.33 2.21 6.14 5.71 6.59 9.78.57 5.1-2.46 10.2-4.55 14.65q-3.47 7.22-7.37 14.32A259.36 259.36 0 0 1 710 112.65c-1.21 1.63 1.53 3.21 2.73 1.59a259.9 259.9 0 0 0 18.73-29q4.2-7.55 7.88-15.38c2.26-4.8 5.3-10.1 5.25-15.56-.09-9.29-9.14-15.93-17.71-16.86-5.65-.61-11.36.82-16.57 2.92a110.19 110.19 0 0 0-14.55 7.35c-9.57 5.63-18.7 12.81-24 22.78-.57 1.09 1.06 2.06 1.66 1z" fill="#000000" class="fill-000000"></path><path d="M674.59 68.64q27.52 19.42 54.15 40.08c2.06 1.6 4.18 3.28 5.4 5.58 2 3.71 1.24 8.22.29 12.31-3.6 15.42-9.74 29.93-15.09 44.76-4.33 12-7.77 24.35-11.28 36.63-3.14 11-6 22.22-16.7 28.25-8.75 4.91-19.8 3.54-29.08-.28-18.39-7.58-36.46-19.87-52.32-31.75-16.73-12.52-32.16-27-44.43-44-4.8-6.63-9.26-14.68-7.23-22.6 1.59-6.21 6.79-10.73 11.72-14.83 22.76-18.93 45.52-37.86 68.72-56.23 3.91-3.09 8-6.24 12.8-7.48A18.55 18.55 0 0 1 671 66.4" fill="#004e98" class="fill-18c4ff"></path><path d="M674.08 69.51q22.68 16.27 44.76 33.36c3.55 2.75 7.19 5.43 10.61 8.34a10.24 10.24 0 0 1 4.24 10.37c-.42 4.25-1.81 8.51-3 12.59-1.28 4.3-2.71 8.56-4.21 12.79-3 8.47-6.39 16.81-9.43 25.28-3.11 8.68-5.78 17.51-8.37 26.36-2.13 7.31-3.89 14.87-6.81 21.92-2.56 6.2-6.66 11.61-12.81 14.58-7 3.37-15.33 2.52-22.49.21-8.07-2.61-15.78-6.85-23.1-11.07-7.68-4.44-15.08-9.33-22.32-14.45-6.88-4.86-13.66-9.88-20.14-15.26-12.69-10.53-24.49-22.41-34.09-35.87-4.46-6.25-9.13-14.33-6.14-22.19 1.29-3.4 3.85-6.2 6.46-8.65 3.09-2.9 6.43-5.54 9.67-8.25q21.47-18 43.08-35.74c7.13-5.83 14.28-11.78 21.61-17.43 3.18-2.45 6.6-4.81 10.55-5.78a17.35 17.35 0 0 1 17.55 6.53c1.09 1.57 3.68.08 2.58-1.51A20 20 0 0 0 653.81 57a24.93 24.93 0 0 0-11.28 4.64c-3.73 2.57-7.21 5.52-10.75 8.34q-23 18.31-45.63 37l-11.42 9.42c-3.4 2.81-6.9 5.54-10.15 8.53a28.68 28.68 0 0 0-7.19 9.32 19.54 19.54 0 0 0-1 12.24c1.9 8.45 7.86 15.69 13.16 22.28a190.89 190.89 0 0 0 17.62 19c12.86 12.19 27.24 22.91 42.05 32.61a215 215 0 0 0 24 13.8c7.73 3.75 15.75 7.14 24.47 7.34a28 28 0 0 0 21.44-8.66c4.93-5.31 7.47-12.2 9.47-19 2.54-8.66 4.84-17.38 7.45-26 2.75-9.12 5.93-18.08 9.24-27 3.25-8.78 6.51-17.57 9-26.61 1.17-4.23 2.45-8.61 2.72-13a13.44 13.44 0 0 0-4.33-11.25c-3.35-3.13-7.3-5.74-11-8.5q-5.75-4.32-11.53-8.61-11.67-8.62-23.51-17-5.76-4.09-11.58-8.14c-1.07-.75-2.07 1-1 1.75z" fill="#004e98" class="fill-18c4ff"></path><path d="M674.08 69.51q22.68 16.27 44.76 33.36c3.55 2.75 7.19 5.43 10.61 8.34a10.24 10.24 0 0 1 4.24 10.37c-.42 4.25-1.81 8.51-3 12.59-1.28 4.3-2.71 8.56-4.21 12.79-3 8.47-6.39 16.81-9.43 25.28-3.11 8.68-5.78 17.51-8.37 26.36-2.13 7.31-3.89 14.87-6.81 21.92-2.56 6.2-6.66 11.61-12.81 14.58-7 3.37-15.33 2.52-22.49.21-8.07-2.61-15.78-6.85-23.1-11.07-7.68-4.44-15.08-9.33-22.32-14.45-6.88-4.86-13.66-9.88-20.14-15.26-12.69-10.53-24.49-22.41-34.09-35.87-4.46-6.25-9.13-14.33-6.14-22.19 1.29-3.4 3.85-6.2 6.46-8.65 3.09-2.9 6.43-5.54 9.67-8.25q21.47-18 43.08-35.74c7.13-5.83 14.28-11.78 21.61-17.43 3.18-2.45 6.6-4.81 10.55-5.78a17.35 17.35 0 0 1 17.55 6.53c1.09 1.57 3.68.08 2.58-1.51A20 20 0 0 0 653.81 57a24.93 24.93 0 0 0-11.28 4.64c-3.73 2.57-7.21 5.52-10.75 8.34q-23 18.31-45.63 37l-11.42 9.42c-3.4 2.81-6.9 5.54-10.15 8.53a28.68 28.68 0 0 0-7.19 9.32 19.54 19.54 0 0 0-1 12.24c1.9 8.45 7.86 15.69 13.16 22.28a190.89 190.89 0 0 0 17.62 19c12.86 12.19 27.24 22.91 42.05 32.61a215 215 0 0 0 24 13.8c7.73 3.75 15.75 7.14 24.47 7.34a28 28 0 0 0 21.44-8.66c4.93-5.31 7.47-12.2 9.47-19 2.54-8.66 4.84-17.38 7.45-26 2.75-9.12 5.93-18.08 9.24-27 3.25-8.78 6.51-17.57 9-26.61 1.17-4.23 2.45-8.61 2.72-13a13.44 13.44 0 0 0-4.33-11.25c-3.35-3.13-7.3-5.74-11-8.5q-5.75-4.32-11.53-8.61-11.67-8.62-23.51-17-5.76-4.09-11.58-8.14c-1.07-.75-2.07 1-1 1.75z" fill="#000000" class="fill-000000"></path><g fill="#004e98" class="fill-18c4ff"><path d="M504.64 505.82c0 16.34.43 32.68 1.42 49 .09 1.4 2.28 1.41 2.19 0-1-16.31-1.61-32.64-1.75-49a.93.93 0 0 0-1.86 0zM620.65 621.91a88.45 88.45 0 0 1-5.91 27.09c-.53 1.35 1.66 1.95 2.17.6a90.47 90.47 0 0 0 5.58-27.65c0-1.18-1.77-1.17-1.84 0zM363 658.42a6 6 0 0 1 2.45.78l2.7 1.1c1.67.68 3.35 1.34 5 2l10.44 4.14c1.23.49 1.77-1.5.54-2-5.22-2.05-10.43-4.14-15.67-6.15-1.25-.47-2.49-1-3.76-1.42a2.65 2.65 0 0 0-2.63.37 1.69 1.69 0 0 0 1.38 2.91c1.15-.22.65-1.93-.48-1.75zM378.7 651.7l16.7 5.76c1.22.42 1.74-1.51.53-1.93l-16.69-5.76c-1.22-.43-1.75 1.51-.54 1.93zM297.94 898.07c-15.05-7.71-32-12.91-48.75-13.33-7.15 21-17.67 41-37.8 48-3.84 1.34-8.46 2.63-9.81 6.46-1.67 4.71 2.88 9.17 7 11.95a176.63 176.63 0 0 0 37.06 18.91c17.47 6.46 40.43 8.61 51.62-6.28 4.9-6.53 6.28-14.93 8.37-22.82A215.39 215.39 0 0 1 316.48 910a99.48 99.48 0 0 0-18.54-11.93z"></path><path d="M299.27 895.8c-15.52-7.92-32.58-13.21-50.08-13.69a2.7 2.7 0 0 0-2.54 1.93c-4.84 14.17-11.31 28.84-23 38.71a42.34 42.34 0 0 1-8.94 5.78c-3.35 1.63-7 2.43-10.34 4.15-3.76 2-6.31 5.63-5.64 10s4.15 7.54 7.46 10a122 122 0 0 0 12 7.52c4.24 2.41 8.59 4.66 13 6.71 7.73 3.59 15.73 6.89 24.06 8.82 13.71 3.18 30.46 3.43 41.24-7.08 6.29-6.13 8.61-14.65 10.65-22.92a215.55 215.55 0 0 1 8.91-27.94q1.28-3.22 2.66-6.4a2.73 2.73 0 0 0-.41-3.19 103.79 103.79 0 0 0-19.07-12.37c-3-1.55-5.68 3-2.66 4.55a97.55 97.55 0 0 1 18 11.54l-.41-3.19a228.31 228.31 0 0 0-9.81 26.95c-1.23 4.28-2.23 8.61-3.37 12.92a44.41 44.41 0 0 1-4.4 11.48c-7.19 12.08-22.33 13.63-35.08 11.54a98.49 98.49 0 0 1-22-6.75A173.6 173.6 0 0 1 215 952.1c-3.8-2.36-16.39-9.78-8.66-14.46 3-1.84 6.71-2.58 10-4a46.17 46.17 0 0 0 9.38-5.72c11.91-9.24 19-23.24 24.19-37.08q1-2.67 1.92-5.37l-2.54 1.94c16.55.45 32.75 5.48 47.42 13a2.69 2.69 0 0 0 3.6-1 2.66 2.66 0 0 0-1.04-3.61zM785.53 519.56c-7.76-13.23-18.22-28.12-33.56-28.27-13.53-.14-23.89 11.4-32.62 21.74-3.63 4.3-7.7 8.85-12.06 13.58a88.06 88.06 0 0 1 43 51.59q2.26-6.08 4.46-12.13c3.59-9.94 8.57-21.29 18.83-23.82 4.59-1.13 10-.38 13.5-3.52 5.21-4.64 1.98-13.15-1.55-19.17z"></path><path d="M787.8 518.23C781.22 507 773 494.45 760.1 490a27.21 27.21 0 0 0-20.1 1.37c-6.45 2.93-11.84 7.95-16.61 13.09-2.77 3-5.35 6.13-8 9.21-3.23 3.75-6.56 7.43-9.91 11.08a2.65 2.65 0 0 0 .53 4.13 85.64 85.64 0 0 1 36.25 36.52 83 83 0 0 1 5.53 13.5 2.66 2.66 0 0 0 5.08 0c2.13-5.9 4.13-11.9 6.56-17.72 1.84-4.3 4.07-8.66 7.4-12a16.54 16.54 0 0 1 5.19-3.64 25.19 25.19 0 0 1 7.19-1.45c2.82-.32 5.74-.73 8.17-2.29a10.8 10.8 0 0 0 4.69-6.45c1.43-5.88-1.37-12.13-4.27-17.1-1.7-2.93-6.25-.28-4.54 2.66 2.15 3.7 4.75 8.84 3.73 13-1.15 4.7-6.74 4.69-10.82 5.22a21.75 21.75 0 0 0-13.42 6.65 42.1 42.1 0 0 0-7.75 12.39c-2.74 6.31-4.89 12.88-7.3 19.33h5.08a91.25 91.25 0 0 0-31.08-44.74 86.83 86.83 0 0 0-13.12-8.42l.53 4.13c5.28-5.73 10.3-11.67 15.45-17.53 4.32-4.92 9-9.8 14.61-13.21 5.2-3.14 11.26-4.68 17.21-3.28 5.69 1.34 10.46 4.92 14.45 9.08 4.93 5.16 8.79 11.23 12.39 17.36 1.78 2.92 6.31.27 4.58-2.66z"></path></g><path d="M207.86 947.62c2.23-1.37 4.82-1.56 7.37-1.69s5.32-.16 8-.08a98.45 98.45 0 0 1 15.77 1.74c9.85 1.9 20 5.17 28.51 10.55a34.9 34.9 0 0 1 5.89 4.59 24.8 24.8 0 0 1 2.57 2.95c.35.47.67 1 1 1.44.18.27.34.55.51.83l.19.33q.23.66.24.06l.75-.57-.17.05 1 .12.35.67-.61 1.06.13-.06c1.24-.56.35-2.74-.94-2.23h-.13a1.27 1.27 0 0 0-.9 1.18 1.55 1.55 0 0 0 1.81 1.59 1.78 1.78 0 0 0 1-2.55 20 20 0 0 0-4.4-6.17 44.14 44.14 0 0 0-13.42-8.94 96.7 96.7 0 0 0-46.19-8.76c-3.18.19-6.5.4-9.26 2.16-1 .67-.09 2.34 1 1.68zM232.64 914.33c2.74.06 5.52 0 8.26.21a8.63 8.63 0 0 1 5.87 2.4A1.32 1.32 0 0 0 249 916c0-.34 0-.69-.07-1a1.26 1.26 0 0 0-2.52 0v1l2.25-.92c-4-4.19-10.85-3.05-16-2.81a1 1 0 0 0 0 2.05zM237.13 906a15.45 15.45 0 0 1 7.28-.12 14.91 14.91 0 0 1 3.4 1.19 31.63 31.63 0 0 1 3.16 2c1.07.7 2.16-.83 1.33-1.72a11.7 11.7 0 0 0-3.47-2.29 17.87 17.87 0 0 0-4-1.34 16.33 16.33 0 0 0-8.24.43.93.93 0 0 0 .49 1.8zM240.42 897.42a9 9 0 0 1 6.94-.3 20.69 20.69 0 0 1 6.26 3.87c1.08.85 2.58-.53 1.55-1.55-4-4-10.43-6.65-15.76-3.75-1.14.62-.14 2.32 1 1.73zM756.5 562.54l.29.07h.14c.17.06-.2-.1 0 0l.26.14.12.08c.07 0 .16.15 0 0a5.55 5.55 0 0 1 .42.42c.06.07.1.18 0 0l.08.12.16.26c0 .09.16.39 0 .07 0 .1.07.19.1.28s0 .19.07.29a.4.4 0 0 1 0 .15v-.17a.28.28 0 0 1 0 .09 1.51 1.51 0 0 1 0 .3v.12s0 .24 0 0v.14c0 .09-.17.45 0 .1a1.23 1.23 0 0 0-.11.8 1 1 0 0 0 .61.68 1 1 0 0 0 .8 0 1 1 0 0 0 .6-.68 4 4 0 0 0-2.94-5.09 1 1 0 0 0-.72.09 1 1 0 0 0-.44.57 1 1 0 0 0 .66 1.16zM759.5 554.7s.21.16.09.06l.27.23c.18.17.35.34.51.52a1 1 0 0 0 .13.16c.1.11-.12-.15 0 0s.15.19.21.29a7.59 7.59 0 0 1 .39.66c.06.11.11.22.16.33s0 0 0-.05a.62.62 0 0 1 .07.19 6.12 6.12 0 0 1 .22.69c0 .12.05.24.08.36s0 .1 0 .16c.05.26 0-.19 0 0v.76c0 .13 0 .34 0 0a1.25 1.25 0 0 0 .33.8 1.13 1.13 0 0 0 1.94-.8 6.42 6.42 0 0 0-1-3.54 7.83 7.83 0 0 0-2.49-2.63 1.07 1.07 0 0 0-1.45.38 1.09 1.09 0 0 0 .38 1.44zM764.41 547.18l.18.12c.11.08 0 0 0 0l.49.34.15.11c.16.11-.11-.1 0 0l.3.27c.09.08.17.17.26.26l.12.14c.11.14.06 0 0 0 .08 0 .17.24.21.3s.15.24.21.35.11.23.16.34-.08-.23 0 0l.06.18a3.86 3.86 0 0 1 .2.74s0 .27 0 .07v.43a5.48 5.48 0 0 1 0 .81 1.12 1.12 0 0 0 1 1.1 1.1 1.1 0 0 0 1.23-.8 5 5 0 0 0 0-2.15 6.2 6.2 0 0 0-.73-1.81 5.21 5.21 0 0 0-3.05-2.48 1 1 0 0 0-1.2.5 1 1 0 0 0 .4 1.22z" fill="#000000" class="fill-000000"></path><g fill="#ffffff" class="fill-ffffff"><path d="M669.44 106.88c.94-6.49-4.94-11.28-10.45-13.25a18.49 18.49 0 0 0-18.22 3.07 15.89 15.89 0 0 0-5.12 7.88 12.52 12.52 0 0 0 1.7 9.6 18.08 18.08 0 0 0 14.9 8.84 18.27 18.27 0 0 0 10-2.75c3-1.89 5.89-5 6.41-8.6.27-1.89-2.34-2.74-2.94-.81-1.51 4.94-6.35 8.14-11.37 8.7a14.53 14.53 0 0 1-12.86-5.34 11.28 11.28 0 0 1-2.82-6.88 10.91 10.91 0 0 1 2.86-6.73 15.27 15.27 0 0 1 14-4.8c5.42.85 12 4.64 12.09 10.82 0 1 1.68 1.32 1.83.25zM676.07 168.75c.94-6.48-4.94-11.28-10.45-13.25a18.53 18.53 0 0 0-18.22 3.07 15.89 15.89 0 0 0-5.12 7.88 12.55 12.55 0 0 0 1.7 9.61 17.83 17.83 0 0 0 24.92 6.08c3-1.89 5.89-5 6.41-8.59.27-1.89-2.34-2.74-2.94-.81-1.51 4.94-6.35 8.14-11.37 8.7a14.55 14.55 0 0 1-12.86-5.34 11.33 11.33 0 0 1-2.82-6.89 10.88 10.88 0 0 1 2.86-6.72 15.3 15.3 0 0 1 14-4.81c5.42.86 12 4.64 12.09 10.82 0 1 1.68 1.33 1.83.25zM611.51 143.37c11.92-2.82 23.71-6.34 35.38-10.05s23.29-7.69 34.81-11.9c6.52-2.37 13-4.76 19.46-7.39 1.71-.71 1-3.51-.78-2.83-11.48 4.33-22.9 8.76-34.49 12.8s-23.26 7.8-35 11.45c-6.63 2.06-13.29 4-19.92 6.1a1 1 0 0 0 .51 1.82z"></path></g><g fill="#004e98" class="fill-18c4ff"><path d="M180.34 108.19a24.24 24.24 0 0 0-19.53 1.64c-6 3.22-11.78 9.74-10.59 17 1.16 7 7.9 11.67 14.63 12.19 7.66.59 16.11-3.28 21.45-8.65 3-3 5.2-7.14 5.11-11.51a8.33 8.33 0 0 0-2.17-5.9c-1.45-1.36-3.78-1.93-5.46-.67-1.16.88-.56 3 1.07 2.53 3.6-1.07 3.68 4.32 3.18 6.52a15.11 15.11 0 0 1-5.16 8c-4.75 4.08-11.47 7-17.8 6.61-5.37-.36-10.8-4-11.84-9.55-1.09-5.75 4-11.14 8.52-13.86a22.92 22.92 0 0 1 18.07-2.42c1.23.36 1.7-1.48.52-1.9zM195.86 156.82a24.24 24.24 0 0 0-19.53 1.64c-6 3.22-11.78 9.74-10.58 17 1.15 7 7.89 11.68 14.63 12.19 7.65.59 16.1-3.28 21.44-8.65 3-3 5.2-7.14 5.11-11.5a8.31 8.31 0 0 0-2.17-5.9c-1.45-1.37-3.78-1.94-5.45-.67-1.17.87-.57 3 1.06 2.53 3.6-1.08 3.68 4.32 3.18 6.51a15.05 15.05 0 0 1-5.16 8c-4.75 4.08-11.47 7-17.8 6.61-5.37-.35-10.8-4-11.84-9.55-1.09-5.74 4-11.14 8.52-13.86a23 23 0 0 1 18.07-2.42c1.23.37 1.71-1.48.52-1.9zM120.23 162.91a514.92 514.92 0 0 0 80.39-25c7.24-2.91 14.42-6 21.5-9.24 1.55-.71.21-3-1.32-2.27a571 571 0 0 1-78.35 28.6q-11.32 3.21-22.78 5.92c-1.33.31-.76 2.33.56 2z"></path></g><g fill="#ffffff" class="fill-ffffff"><path d="M332.12 101q-5.73 28.83-11.39 57.67c-.27 1.38 1.84 2 2.11.58q5.69-28.84 11.24-57.71c.24-1.27-1.71-1.82-2-.54zM349.74 103a466.4 466.4 0 0 0-10.33 55.76q-1 8-1.66 16c-.11 1.34 2 1.33 2.09 0a505.34 505.34 0 0 1 8.16-55.61c1.08-5.25 2.22-10.48 3.46-15.7.26-1.11-1.44-1.59-1.72-.47zM364.07 170.28l3.93-6.85a1 1 0 0 0-.34-1.28.94.94 0 0 0-1.27.34l-3.91 6.86a.92.92 0 0 0 1.59.93z"></path></g><path d="M789.88 148.94q3.54-4.94 7.49-9.55c1.25-1.46 2.5-2.94 3.87-4.29s2.7-2.4 4.51-2.42c3.53 0 5.8 3.5 6.41 6.58a22.06 22.06 0 0 1 .14 5.91 45.88 45.88 0 0 1-.72 5.84c-.79 3.78-2.85 7.72-7 8.33l1.42.66c-1-1.75-2.46-3.95-2.08-6.1.23-1.26 1.66-3 3.09-2.38s2.33 3.37 3 4.67a19.27 19.27 0 0 0 2.7 4.29c2.52 2.83 6.37 3.59 10 2.89 4.06-.79 7.41-3.45 10.57-5.95l-2.33-.61a16.2 16.2 0 0 0 14.62 10.77c1.67 0 1.61-2.4 0-2.55a14.25 14.25 0 0 1-11.93-9 1.42 1.42 0 0 0-2.33-.62c-3.43 2.73-7.39 5.84-12.05 5.41-4.38-.4-5.95-4.26-7.73-7.69-.85-1.65-1.87-3.61-3.75-4.24a4.66 4.66 0 0 0-4.53 1.12c-3.59 3.17-1.53 7.89.5 11.29a1.37 1.37 0 0 0 1.49.61c4.11-.61 6.94-4.11 8.23-7.85a30.79 30.79 0 0 0 1.25-6.87 34.36 34.36 0 0 0 .17-7c-.45-4-2.42-8-6.38-9.56-4.3-1.72-7.77 1.12-10.5 4.15a142.72 142.72 0 0 0-10.29 12.86c-.94 1.31 1.22 2.56 2.15 1.26z" fill="#004e98" class="fill-18c4ff"></path><path d="M237.76 50.86a20.59 20.59 0 0 0 .88 14.53 21.82 21.82 0 0 0 4 6.23c1.35 1.45 4.24 3.42 5.66.88a1.38 1.38 0 0 0-2.39-1.39c.2-.34.44 0 .15-.23-.07-.06-.28-.12-.37-.18a4.87 4.87 0 0 1-.9-.8 16.36 16.36 0 0 1-1.79-2.21 19.56 19.56 0 0 1-2.59-5 21.86 21.86 0 0 1-.67-11.26 1 1 0 0 0-1.93-.53zM760.81 54.12c.11 4.16-.15 8.62-2.14 12.36a11.68 11.68 0 0 1-7.93 6.22c-1.84.34-1.06 3.15.77 2.8a13.59 13.59 0 0 0 9.27-7.44c2.18-4.31 2.38-9.22 2-13.94-.11-1.21-2-1.25-1.92 0z" fill="#000000" class="fill-000000"></path><g fill="#004e98" class="fill-18c4ff"><path d="M483.47 396.16a60.54 60.54 0 0 1-20.91-25.45c-2-4.62-3.45-9.68-2.69-14.65s4.2-9.79 9.11-10.92c4.18-1 8.62.87 11.81 3.76s5.36 6.69 7.47 10.43c-1.18-6.95 4-13.46 9.8-17.45 4.58-3.14 10.34-5.43 15.66-3.79 7 2.14 10.48 10.44 9.64 17.69s-4.94 13.64-8.92 19.74L505.67 389c-2.13 3.25-4.35 6.61-7.63 8.71s-7.92 2.58-10.9.08"></path><path d="M484 395.23a61.08 61.08 0 0 1-20.17-25.05c-2.26-5.22-4-11.53-1.64-17 2-4.79 6.66-7.81 11.87-6.34 6.36 1.8 9.82 7.94 12.85 13.3.92 1.63 3.07.44 2.82-1.19-1.11-7.21 5.2-13.47 10.86-16.83 3.28-1.94 7.21-3.46 11.09-2.88A10.92 10.92 0 0 1 519 344c4 5.78 3.32 12.94.69 19.12a69.85 69.85 0 0 1-6 10.52c-2.41 3.7-4.84 7.38-7.25 11.07s-4.58 7.65-7.88 10.52c-2.67 2.34-7.29 3.91-10.42 1.48-1.52-1.18-3.69.9-2.15 2.15 3.2 2.63 7.46 2.73 11.16 1.1 3.93-1.73 6.65-5.3 9-8.79 2.81-4.22 5.55-8.51 8.31-12.76a108.84 108.84 0 0 0 7.24-12.09c3.48-7.29 4.85-15.81.52-23.07a14.72 14.72 0 0 0-7.82-6.54c-4.24-1.42-8.81-.47-12.77 1.35-8.16 3.74-16.39 12-14.89 21.71l2.82-1.19c-3.15-5.56-6.67-11.41-12.81-14a12.54 12.54 0 0 0-15.31 4c-3.89 5.14-3.85 11.85-2.06 17.79A55.24 55.24 0 0 0 468.1 383a61 61 0 0 0 14.82 14.07c1.17.79 2.21-1.07 1.1-1.87zM433 333.44a64.82 64.82 0 0 1 5.29-40.44 105.47 105.47 0 0 1 6.2-10.18c1.07-1.69-1.46-3.7-2.8-2.16a44.66 44.66 0 0 0-5.82 9.28 60.27 60.27 0 0 0-4 10.18 66.48 66.48 0 0 0-2.66 21.58A56.64 56.64 0 0 0 431 334c.34 1.25 2.13.71 1.91-.52z"></path></g></svg>