<svg viewBox="0 0 1000 1000" xmlns="http://www.w3.org/2000/svg"><rect fill="#004e98" height="629.41" rx="38.16" width="329.44" x="48.95" y="126.3" class="fill-18c4ff"></rect><path d="M340.23 124.31h-235.8c-7.13 0-14.54-.55-21.65.24C62.06 126.84 47 144.65 47 165.23v547.5c0 9.62 1.2 18.9 6.79 27.17a40.64 40.64 0 0 0 33.37 17.81H336.4a66.1 66.1 0 0 0 9.54-.42 40.39 40.39 0 0 0 31-23.49c3.2-7.26 3.44-14.58 3.44-22.24V164.84a40.66 40.66 0 0 0-40.16-40.53c-2.57 0-2.57 4 0 4 20.61.23 36.14 17 36.17 37.28v546.04c0 7.76-.24 15.18-3.95 22.38a36.6 36.6 0 0 1-32.25 19.71H91.75c-2.13 0-4.26.06-6.39 0A36.42 36.42 0 0 1 53 729.56c-2.17-6.24-2-12.4-2-18.83V165.25c0-20.18 15.83-36.77 36.22-36.95 6.87-.06 13.73 0 20.59 0h232.42c2.57 0 2.58-3.99 0-3.99z" fill="#004e98" class="fill-18c4ff"></path><path d="M486.93 412.21c-8.14 9.51-20.75 14.39-33.16 13.84a39.18 39.18 0 0 1-17.47-4.87c-6.37-3.6-11.58-9-15.94-14.77A167.41 167.41 0 0 1 408.13 387q-5.78-10.44-10.5-21.42a257.72 257.72 0 0 1-14.57-45.86c-.75-3.33-1.93-6.36-4.86-8.32-2.63-1.75-5.82-2.34-8.5-4-5.2-3.22-5-12.73-12.5-12.88a4.75 4.75 0 0 0-3.54 1.45 1 1 0 0 0 1.43 1.43c2.47-2.36 6 .87 7.19 3 1.66 3 2.64 6.2 5.45 8.32 2.49 1.87 5.59 2.55 8.28 4a8 8 0 0 1 3.44 3.42 21.73 21.73 0 0 1 1.53 5.39 237.32 237.32 0 0 0 14.5 45.49c3.19 7.37 6.74 14.59 10.64 21.6a159 159 0 0 0 12.16 19.2c4.38 5.76 9.48 11 15.71 14.8a40 40 0 0 0 17.37 5.49c12.06 1 24.68-3.06 33.49-11.44a37.86 37.86 0 0 0 3.15-3.37c.62-.76-.44-1.85-1.09-1.09zM356.89 284.05a9.43 9.43 0 0 1 6.79.41.86.86 0 0 0 1.14-.3.83.83 0 0 0-.3-1.13 10.38 10.38 0 0 0-8-.33.71.71 0 0 0-.49.86.72.72 0 0 0 .86.49zM363.6 273.48a9.74 9.74 0 0 1 6.52 2.77c.7.68 1.79-.41 1.07-1.08a11.25 11.25 0 0 0-7.59-3.06.69.69 0 0 0 0 1.37zM365.33 258.59a30.37 30.37 0 0 1 21.27 11 25.78 25.78 0 0 1 2.34 3.35c.67 1.11 1.12 2.63 2 3.53a1 1 0 0 0 1.69-.7c-.05-1.36-1.07-2.83-1.77-4a30.64 30.64 0 0 0-2.5-3.48 31.73 31.73 0 0 0-6.52-5.94 30.49 30.49 0 0 0-16.54-5.28.74.74 0 0 0 0 1.47zM393.64 266.23a28.24 28.24 0 0 1 12.05 16.14 33 33 0 0 1 1 11c-.26 4.11-.79 8.26-.27 12.37 1 8 6.32 14.72 10.85 21.09a214 214 0 0 0 15 19.45c5.64 6.25 11.43 12.25 15.33 19.8.6 1.16 2.2.14 1.71-1-3-6.86-8.2-12.49-13.14-18a215.65 215.65 0 0 1-15.25-19.37c-2.48-3.46-4.95-6.93-7.22-10.53-2.17-3.42-4.1-7.07-4.71-11.13s0-8.49.12-12.72a32.46 32.46 0 0 0-1.16-10.79A31 31 0 0 0 394.33 265c-.76-.45-1.43.71-.69 1.19zM63.16 126.3h24A38.17 38.17 0 0 0 49 164.46v553.1a38.17 38.17 0 0 0 38.16 38.16h-24A38.16 38.16 0 0 1 25 717.56v-553.1a38.16 38.16 0 0 1 38.16-38.16z" fill="#000000" class="fill-000000"></path><path d="M63.16 128.3h24v-4c-19.93.22-37.23 15.06-39.8 35a70.69 70.69 0 0 0-.35 9.2V716.77a40.19 40.19 0 0 0 40.15 40.94v-4H70.3c-7.09 0-14 .1-20.7-2.61A36.66 36.66 0 0 1 27 717V166.23c0-9.39 2.6-18.38 8.92-25.56a36.63 36.63 0 0 1 27.24-12.37c2.57 0 2.57-4 0-4-20.93.23-38.65 16.53-40.07 37.54-.16 2.45-.09 4.92-.09 7.38v546c0 7.66 1.3 15.09 5.08 21.88a40.63 40.63 0 0 0 22 18.43c6.7 2.32 13.54 2.17 20.5 2.17h16.53c2.57 0 2.57-4 0-4A36.57 36.57 0 0 1 51 717.53V165.88c0-9.7 3-18.94 9.74-26.11a36.62 36.62 0 0 1 26.37-11.47c2.57 0 2.58-4 0-4h-24c-2.52.01-2.53 4 .05 4z" fill="#000000" class="fill-000000"></path><path d="M340.23 124.31H97.39c-3.28 0-6.57-.06-9.85 0h-.43c-2.57 0-2.57 4 0 4H330c3.28 0 6.57.06 9.84 0h.43c2.57 0 2.58-4 0-4z" fill="#000000" class="fill-000000"></path><path d="M242.18 145.57h-57a19.87 19.87 0 0 1-16.37-8.57l-7.39-10.69h104.51L258.54 137a19.88 19.88 0 0 1-16.36 8.57z" fill="#000000" class="fill-000000"></path><path d="M242.18 143.58h-51c-4.66 0-9.39.36-13.72-1.75a18.28 18.28 0 0 1-6.91-5.85l-1.91-2.77-5.48-7.91-1.72 3h100.21a40 40 0 0 0 4.1 0 1.08 1.08 0 0 1 .18 0l-1.73-3-6.63 9.59a21 21 0 0 1-4.63 5.1 18.23 18.23 0 0 1-10.76 3.59c-2.57 0-2.58 4 0 4a22.16 22.16 0 0 0 17.4-8.64c2-2.64 3.81-5.46 5.7-8.19l2.37-3.43a2 2 0 0 0-1.72-3h-91.59c-4.23 0-8.51-.18-12.74 0h-.18a2 2 0 0 0-1.72 3l4.81 7c2 2.82 3.79 5.81 6.45 8a22.35 22.35 0 0 0 14.28 5.25h56.94c2.57 0 2.57-3.99 0-3.99zM525.67 760.66l-4.27 71.87c-.22 3.84-.5 7.84-2.44 11.16-3.23 5.51-10 7.59-15.2 11.34s-8.52 12.27-3.37 16.05c1.86 1.36 4.29 1.6 6.59 1.77a312.16 312.16 0 0 0 56.45-1c3.37-.37 7.08-1 9.2-3.61 1.49-1.86 1.86-4.35 2.18-6.71l13.05-96.47" fill="#000000" class="fill-000000"></path><path d="M524.9 760.66c-1 10.87-1.53 21.8-2.22 32.69s-1.41 21.79-2.07 32.69c-.29 4.79-.08 10-1.6 14.63-1.36 4.12-4.71 6.66-8.31 8.78-3.28 1.93-7 3.56-9.64 6.32a15.37 15.37 0 0 0-4.45 9.4 7.83 7.83 0 0 0 5.23 8 23.77 23.77 0 0 0 6.61 1q4.05.29 8.1.45a311.39 311.39 0 0 0 32.19-.29c5.2-.31 10.42-.7 15.6-1.34 3.8-.47 8-1.47 10-5.08a17.43 17.43 0 0 0 1.68-6.27c.36-2.64.71-5.28 1.07-7.92l2.17-16.07c2.91-21.54 5.88-43.07 8.67-64.63.34-2.64.64-5.28 1-7.92.14-1.13-1.83-1.4-2-.27-3.13 20.72-5.79 41.52-8.6 62.29l-4.23 31.16c-.57 4.23-.6 9.39-5.19 11.25a21.12 21.12 0 0 1-5.67 1.17q-3.8.4-7.59.72-15.44 1.27-30.94 1-7.86-.13-15.71-.66c-3.59-.24-8.72-.26-9.75-4.6-.78-3.27 1.11-6.94 3.24-9.31 2.47-2.74 6-4.31 9.16-6.14s6.45-4.12 8.39-7.43c2.29-3.91 2.42-8.61 2.67-13q1.85-31.44 3.45-62.88c.13-2.58.26-5.16.33-7.74 0-1-1.45-1-1.54 0z" fill="#000000" class="fill-000000"></path><path d="M664.83 381.44c32.75 23.11 44 65.92 51 105.39.42 2.34 1 4.94 3 6.24 1.56 1 3.58.94 5.44.76 19.66-1.93 37.83-10.84 56-18.52a489.81 489.81 0 0 1 70.49-23.61c10.74-2.7 22.55-4.95 32.52-.13 15.94 7.71 19.07 28.66 20.13 46.33.62 10.34 1.21 20.9-1.61 30.86s-9.76 19.38-19.69 22.3c-6.12 1.8-12.82 1-18.83 3.19-11.5 4.13-16.78 17.27-26.13 25.15a34.15 34.15 0 0 1-37.24 3.86c-5.58-3-10.32-7.61-16.32-9.65-21.84-7.42-41.81 22.13-64.63 18.72-11.45-1.72-20.11-11.42-31.15-14.91-4.45-1.41-9.19-1.78-13.61-3.26-14.42-4.83-22.31-20-28.06-34.08-11.31-27.64-42.63-115.33-48.64-144.58" fill="#004e98" class="fill-18c4ff"></path><path d="M560.34 416.67c2.27 15.53-5.6 52.24-10.17 67.25C522.78 573.82 501.65 667.19 507 761c.23 4.13.61 8.51 3.07 11.83 2.91 3.92 8 5.43 12.78 6.48A168.64 168.64 0 0 0 565 783.2c12.62-.44 27.35-3.84 32.3-15.46 3.31-7.77 1-16.66 1.41-25.1 1.44-31.34 39.25-53.94 35.69-85.1-1.44-12.6-9.8-24.58-7.16-37 2.81-13.21 17.31-22 18.75-35.4 1.23-11.48-7.64-21.89-7.86-33.44-.11-6 2.15-11.81 4.07-17.53A168.36 168.36 0 0 0 630 400.63" fill="#004e98" class="fill-18c4ff"></path><path d="M559.46 278.61c-10.71 1.79-20.64 6.64-30.15 11.88-4.8 2.65-9.64 5.48-13.29 9.59-8.95 10.07-8.78 25.17-6.84 38.51a216.45 216.45 0 0 0 20.52 65.46c4.24 8.49 9.39 17.06 17.52 21.94 7.66 4.59 17.06 5.31 25.95 4.51 23.42-2.1 44.73-13.71 66-23.68 12.85-6 27-12.5 33-25.35 2.64-5.63 3.39-11.94 3.89-18.14 2.28-28 2.56-70.82-24.26-88.34-6.07-4-13.69-4.46-20.93-4.83" fill="#ffffff" class="fill-ffffff"></path><path d="M559.25 277.86c-8.72 1.29-16.87 4.62-24.7 8.56-7.18 3.62-15.1 7.43-20.25 13.8-9.75 12-8 29-5.67 43.25a217.82 217.82 0 0 0 15.27 51.26c6.23 14.26 13.8 30.66 29.91 35.56 8 2.44 16.63 2.09 24.83.87a120.67 120.67 0 0 0 25.14-6.88c8.12-3.09 16-6.77 23.86-10.5 7.3-3.47 14.69-6.77 21.89-10.45 6.34-3.24 12.6-7 17.57-12.17 5.57-5.78 8.48-12.94 9.62-20.82a189.85 189.85 0 0 0 1.52-19.34c.25-6.28.27-12.56-.07-18.83-.67-12.6-2.68-25.4-7.93-37S655.68 272.65 642.8 270a80.24 80.24 0 0 0-11.88-1c-1.45-.08-1.44 2.17 0 2.24 7.59.4 15.5 1.41 21.81 5.94a44.21 44.21 0 0 1 11.52 12.51c6.36 10.16 9.22 22.21 10.52 34a198.14 198.14 0 0 1 .28 35.63c-.51 7.44-.94 15.29-4.33 22.08-3.07 6.16-8.22 10.88-13.9 14.61-6 3.91-12.47 6.87-18.9 9.9-7.64 3.59-15.2 7.34-22.89 10.79-15 6.74-31.33 12.77-48 12.72-7.91 0-16-1.76-22.25-6.81-5.89-4.73-9.87-11.37-13.26-18a213.13 213.13 0 0 1-17.57-48.14 173.37 173.37 0 0 1-4.17-24.25c-.62-7.12-.56-14.5 1.64-21.36a27.92 27.92 0 0 1 4.9-9.23 35.93 35.93 0 0 1 9.05-7.51 132.8 132.8 0 0 1 22.46-11.33 73.56 73.56 0 0 1 11.89-3.47c1-.19.55-1.64-.42-1.5zM552.91 189.18a23.12 23.12 0 0 0-12.5 6.16c-1.93 1.86-3.63 4.46-3 7.06a5.77 5.77 0 0 0 3.08 3.57 11 11 0 0 0 4.71 1 20.34 20.34 0 0 0 7.94-1.46" fill="#000000" class="fill-000000"></path><path d="M552.7 188.41c-5.4.74-11.1 3.44-14.53 7.79-1.72 2.17-2.69 5-1.44 7.63s4 3.87 6.65 4.24a18.82 18.82 0 0 0 10.42-1.5c1.27-.6.37-2.68-.95-2.26-3.12 1-6.42 1.82-9.71 1.23-2.81-.52-5.43-2.6-4.45-5.72.88-2.81 3.59-5 6-6.56a22.68 22.68 0 0 1 8.46-3.31c1-.18.57-1.68-.42-1.54z" fill="#000000" class="fill-000000"></path><path d="M543.75 206.1a39.78 39.78 0 0 1-11.87 14.62c-1.7 1.29-3.74 3.34-2.65 5.18a9.88 9.88 0 0 0 1.24 1.35c1.76 2 .89 5.05 0 7.56-1.86 5.33-3.26 11.52-.39 16.39s8.8 6.62 14.32 7.18c15.18 1.53 31.8-4.66 39.39-17.89 3.56-6.18 5-13.44 4.92-20.58 0-5.32-.84-10.78-3.53-15.36-4.86-8.27-15.24-12.24-24.79-11.35-6.54.61-14.45 6.72-16.66 12.9" fill="#ffffff" class="fill-ffffff"></path><path d="M584.43 240.86a39.16 39.16 0 0 0 5.38-19.2c.19-6.47-.68-13.42-4.43-18.88a25 25 0 0 0-13-9.36c-5.05-1.63-11.13-2.23-16.17-.32-5.66 2.14-11.38 6.84-13.2 12.78-.27.87 1.12 1.5 1.5.64a22.39 22.39 0 0 1 10.87-10.7c4.59-2.21 10-2 14.85-.73A23.45 23.45 0 0 1 582.8 203c3.75 4.77 4.81 11 4.83 16.93 0 6.93-1.18 14.05-4.43 20.22a.72.72 0 0 0 1.23.73z" fill="#000000" class="fill-000000"></path><path d="M543.13 205.74a43.51 43.51 0 0 1-9.33 11.95c-2.76 2.52-8.57 5.91-4.49 9.94 1.8 1.79 1 4.42.23 6.54a42.44 42.44 0 0 0-1.92 7.26c-.68 4.59 0 9.39 3.44 12.78s8.62 4.85 13.36 5c.91 0 1.15-1.44.22-1.61-4-.73-8.25-1.59-11.39-4.33-3.65-3.18-4.17-8-3.29-12.49a55.46 55.46 0 0 1 1.89-6.54 10.1 10.1 0 0 0 .51-5.77 5.58 5.58 0 0 0-1.36-2.27c-.92-.95-1.25-1.55-.4-2.72 1.26-1.75 3.34-2.92 4.92-4.37a37.21 37.21 0 0 0 8.85-12.65c.36-.82-.8-1.56-1.24-.72z" fill="#000000" class="fill-000000"></path><path d="M541.3 217.94a4.43 4.43 0 0 1 .25.88v-.24a1 1 0 0 1 0 .34v-.26a2 2 0 0 1-.07.26l.1-.24a1.87 1.87 0 0 1-.17.31l.17-.22a1.06 1.06 0 0 1-.15.15l.21-.17a.57.57 0 0 1-.13.08l.25-.11h-.07l1 .28.17.21a.64.64 0 0 1-.08-.14l.11.26a.59.59 0 0 1 0-.19v.29a1.21 1.21 0 0 1 0-.19v.29a.67.67 0 0 1 0-.19l-.11.27a.64.64 0 0 1 .08-.14l-.17.22a1.19 1.19 0 0 0 .33-.79 1.14 1.14 0 0 0-1.27-1.11.91.91 0 0 0-.42.14 1.1 1.1 0 0 0-.4.4.75.75 0 0 0-.07.12 1.51 1.51 0 0 0-.15.37 2.79 2.79 0 0 0-.07.4v.16a1.84 1.84 0 0 0 .21.76 1.67 1.67 0 0 0 .31.44 1.15 1.15 0 0 0 .48.27 1.1 1.1 0 0 0 .57 0 1.84 1.84 0 0 0 .67-.4 1.62 1.62 0 0 0 .32-.41 1.76 1.76 0 0 0 .23-1 1.93 1.93 0 0 0-.11-.53 3 3 0 0 0-.24-.51 3.51 3.51 0 0 0-.62-.71.74.74 0 0 0-.88-.11.81.81 0 0 0-.26.26.72.72 0 0 0-.07.56zM548 215.72c-.08-.2 0 .3 0-.06a.91.91 0 0 0-.25-.52l-.26-.27c-.19-.18-.38-.36-.58-.53l-.28-.24-.15-.11c-.25-.19-.31-.24-.17-.14s.07.06 0 0c-.26-.22-.54-.43-.81-.63a8.89 8.89 0 0 0-1.31-.75 2 2 0 0 0-1.73-.16 1.65 1.65 0 0 0-.94 1.92 1.43 1.43 0 0 0 2.09.86l-.34.14-.39.05-.4-.05a6.5 6.5 0 0 0 .74.06l-.4-.05a13.72 13.72 0 0 1 2.16.56l.27.1c.25.09-.23-.11 0 0l.56.26c.44.22.94.65 1.46.48H547h.13a.79.79 0 0 0 .74-.19.76.76 0 0 0 .2-.74zM564.36 225.5a1.62 1.62 0 0 0-1.39-.12 2.38 2.38 0 0 0-1.13.9 4.45 4.45 0 0 0-.58 1.1 2.73 2.73 0 0 0-.14 1.44.73.73 0 0 0 .35.46.75.75 0 0 0 .6.08 1.39 1.39 0 0 0 .89-.89 1.29 1.29 0 0 0-.15-1.13 1 1 0 0 0-.49-.37.77.77 0 0 0-.7.14.81.81 0 0 0-.09 1.21v.05l-.13-.17a.53.53 0 0 1 .06.1l-.08-.19a.31.31 0 0 1 0 .13v-.21.14-.21a.53.53 0 0 1 0 .17l.08-.19a.35.35 0 0 1-.07.12l.12-.15a.43.43 0 0 1-.1.09l.16-.12-.1.06.18-.08 1 .54v-.09.21a1.93 1.93 0 0 1 0-.48v.2a2.57 2.57 0 0 1 .19-.67l-.07.18a5.14 5.14 0 0 1 .23-.47l.12-.2a.61.61 0 0 1 .07-.1c.09-.13-.06.07 0 0l.16-.17.09-.08c-.14.14-.07.06 0 0l.1-.05c.12-.06-.16.05 0 0l.23-.05h-.19.22-.19.15-.06.06a.72.72 0 0 0 1-.25.73.73 0 0 0-.25-1zM537.3 238.68a11.31 11.31 0 0 0 5.58-2.93.83.83 0 1 0-1.17-1.18l-.27.23-.13.11c-.22.17.06 0-.07.05s-.37.27-.56.4a11.27 11.27 0 0 1-1.23.8c-.2.11-.4.22-.61.32l-.56.24a11.26 11.26 0 0 1-1.39.45.78.78 0 0 0 .41 1.51z" fill="#000000" class="fill-000000"></path><path d="M541.68 233.79a8.12 8.12 0 0 0 .25 2.3.76.76 0 1 0 1.46-.4 7.67 7.67 0 0 1-.22-1.06v.2a7.37 7.37 0 0 1-.07-1 .73.73 0 0 0-.73-.73.74.74 0 0 0-.72.73zM559 224c1.18-2.08 1.09-8.57.39-10.85-.35-1.12-.91-2.16-1.36-3.25a16.47 16.47 0 0 1 .77-13.9 15.35 15.35 0 0 1-7.09 2.44 2.91 2.91 0 0 1-1.93-.32A2.35 2.35 0 0 1 549 197a4.51 4.51 0 0 1 1.67-5.2 12.44 12.44 0 0 1-5.41 1.44c-1.88-.08-3.86-1.3-4.15-3.16-.4-2.51 2.24-4.41 4.64-5.25a24.58 24.58 0 0 1 9.27-1.38 6 6 0 0 1-2.47-.66 2 2 0 0 1-1-2.19 2.58 2.58 0 0 1 1.37-1.29c2.76-1.39 6-1.4 9.08-1.14a41.72 41.72 0 0 1 17 4.8 26.05 26.05 0 0 1 11.76 12.93 3.25 3.25 0 0 0 1.06 1.69 3.79 3.79 0 0 0 1.29.39c3.44.74 5.91 3.76 7.63 6.84a36.36 36.36 0 0 1 3.93 24.32 9 9 0 0 1-2.09 4.78c-1.25 1.25-3.45 1.71-4.79.55a17.56 17.56 0 0 1-4.87 5.86 3.63 3.63 0 0 1-2 .93 1.45 1.45 0 0 1-1.54-1.28c.42 2.73-1.63 5.15-3.53 7.14l-4.38 4.59a10.16 10.16 0 0 1-3.93 3 10.72 10.72 0 0 1-5.73-.06c-1.7-.39-4-.63-5.08-2.13-.8-1-.77-2.48-.77-3.8a35.54 35.54 0 0 0-.63-6.91c-.4-2-1.85-4.61-1.21-6.66a5.39 5.39 0 0 1 1.49-1.87 10.1 10.1 0 0 0 1.56-2.22 8.72 8.72 0 0 0 1-5.27 5.84 5.84 0 0 0-2-3.66c-1.21-1-3.38-2.06-4.93-1.23-1.12.6-1.73 2.09-2.31 3.15" fill="#000000" class="fill-000000"></path><path d="M559.64 224.36a12.81 12.81 0 0 0 1.15-5.4 19.61 19.61 0 0 0-.37-5.82 31.39 31.39 0 0 0-1.47-3.73 15.4 15.4 0 0 1 .79-12.9c.49-.92-.53-2.1-1.49-1.49a14.32 14.32 0 0 1-6.54 2.27c-.68.05-1.23.07-1.62-.58a2.66 2.66 0 0 1-.24-1.45 3.44 3.44 0 0 1 1.37-2.53 1.12 1.12 0 0 0-1.13-1.94c-1.86.81-4.21 1.86-6.22 1a2.36 2.36 0 0 1-.94-3.9 9.58 9.58 0 0 1 4.91-2.52 24.06 24.06 0 0 1 7.17-.77c1.49 0 1.41-2.11 0-2.28-.62-.07-2.27-.2-2.34-1.09-.06-.61.78-.9 1.24-1.1a13.14 13.14 0 0 1 5.15-.94 41.83 41.83 0 0 1 9.72 1.17 31.71 31.71 0 0 1 16.31 8.81 23.6 23.6 0 0 1 4.66 7.39A3.74 3.74 0 0 0 592 199a11.2 11.2 0 0 1 3.88 1.68c2.28 1.8 3.75 4.5 4.94 7.09a35.43 35.43 0 0 1 2.82 9.44 33.93 33.93 0 0 1 0 10.55 11.23 11.23 0 0 1-1.43 4.64c-.84 1.22-2.4 1.94-3.7 1a1.33 1.33 0 0 0-1.79.47 17.2 17.2 0 0 1-2.71 3.84c-.38.39-3.16 3.06-3.31 2-.2-1.44-2.73-1.12-2.56.34.28 2.54-1.52 4.5-3.15 6.22-1.88 2-3.7 4.13-5.74 6s-4.58 1.74-7.19 1.18c-2.09-.45-4.53-.66-4.76-3.25s-.15-5.14-.6-7.71a24.22 24.22 0 0 0-.94-3.46c-.33-1-.89-2.42-.47-3.49.35-.88 1.42-1.59 2-2.35a11.69 11.69 0 0 0 1.68-3.3 8.39 8.39 0 0 0-.44-6.59 7.3 7.3 0 0 0-5.69-3.69c-2.57-.13-3.71 2-4.74 4-.64 1.21 1.18 2.28 1.83 1.07a7.57 7.57 0 0 1 1.63-2.55c1-.8 2.53-.1 3.46.53 2.31 1.54 2.62 4.4 1.74 6.86a8.86 8.86 0 0 1-1.87 3.06 6 6 0 0 0-1.88 2.71c-.54 2.26.68 4.46 1.18 6.6.63 2.69.49 5.4.62 8.13a5.29 5.29 0 0 0 3.35 5.09 20.76 20.76 0 0 0 6.6 1.35 8.8 8.8 0 0 0 6.63-2.6c2.18-2.06 4.28-4.32 6.28-6.57 1.77-2 3.41-4.38 3.09-7.18l-2.56.35a2.7 2.7 0 0 0 2.14 2.16 4.3 4.3 0 0 0 3.46-1.13 19.27 19.27 0 0 0 5.2-6.22l-1.79.47c2.77 2.1 6.42 0 7.74-2.71 1.56-3.26 1.79-7.4 1.74-11-.11-7.32-2.27-15.31-7-21.05a12.42 12.42 0 0 0-4-3.31 10.33 10.33 0 0 0-2.22-.8 2.62 2.62 0 0 1-1-.28c-.34-.26-.48-.9-.64-1.28a25.64 25.64 0 0 0-5.88-8.6c-5.55-5.37-13-8.15-20.54-9.21-4.15-.59-8.76-1.07-12.68.74-1.46.67-2.78 1.92-2.29 3.68.57 2 2.7 2.54 4.54 2.76v-2.28a25.36 25.36 0 0 0-9.73 1.49c-2.17.81-4.57 2.29-5.2 4.67a4.66 4.66 0 0 0 3 5.39c2.76 1.18 5.62 0 8.18-1.09l-1.13-1.94c-2.33 1.7-3.75 5.93-1.1 8.08 1.38 1.1 3.53.63 5.09.27a16.84 16.84 0 0 0 5.27-2.24l-1.49-1.49a17.85 17.85 0 0 0-.28 16 15.62 15.62 0 0 1 1.37 6.25c.08 1.86.24 4.22-.6 5.94-.42.86.81 1.61 1.29.76z" fill="#000000" class="fill-000000"></path><path d="M567.52 240.49c-2.83 12.83-16.91 20-22.44 31.9a10.82 10.82 0 0 0-1.24 5.71 5.08 5.08 0 0 0 3.39 4.41c1.92.52 3.88-.46 5.62-1.4a18.3 18.3 0 0 0-7.15 13c-.23 3.5.84 7.3 3.65 9.4s7.49 1.68 9.17-1.4a15.78 15.78 0 0 0 .28 11.89c1.78 3.66 5.75 6.38 9.8 6s7.6-4.43 6.87-8.44c.71 3.91 2.36 8.85 7.18 8.77 7.4-.12 17.08-10.61 12.52-17.93 1.9 2.35 6.06 1.44 7.71-1.1s1.33-5.89.39-8.77a23.28 23.28 0 0 0-9.16-12c.87 1.73 3.76 1.28 4.73-.39s.54-3.8-.15-5.61a21.9 21.9 0 0 0-9.05-10.77 3.72 3.72 0 0 0 3 1.06c.28-4.15-3.27-7.43-6.5-10l-13.54-11.04" fill="#000000" class="fill-000000"></path><path d="M566.77 240.29c-1.89 7.4-7.55 12.89-12.68 18.22a75.51 75.51 0 0 0-7.35 8.52c-2.34 3.29-4.92 7.57-4.18 11.78a6.48 6.48 0 0 0 3.63 4.81c2.54 1.08 5.13-.08 7.39-1.28l-1.74-2.25c-5.65 4.41-9.44 12.51-6.92 19.61 1.11 3.12 3.49 5.83 6.86 6.45a7.6 7.6 0 0 0 8.07-3.3l-2.85-1.19c-2.35 7-.79 15.88 6.68 19.06a9.67 9.67 0 0 0 9.55-.92 9 9 0 0 0 3.79-8.72l-3.15.87c.51 2.71 1.34 5.54 3.25 7.63a7.89 7.89 0 0 0 7.79 2.06c5.5-1.22 10.4-6 12.34-11.16a10.35 10.35 0 0 0-.65-9l-2.64 2c2 2.23 5.23 2.27 7.72 1 3-1.56 4.22-5.08 4-8.31-.43-7-5.1-13.43-10.74-17.27-1.48-1-3.24.95-2.39 2.39a4.42 4.42 0 0 0 6.16 1.22c2.49-1.51 2.73-4.7 2.06-7.26-1.43-5.47-5.53-10.25-10.28-13.16-1.71-1.05-3.71 1.44-2.17 2.82a5.73 5.73 0 0 0 4.29 1.58 1.83 1.83 0 0 0 1.79-1.79c.19-4.8-3.43-8.38-6.88-11.17-4.56-3.7-9.16-7.34-13.75-11a1.78 1.78 0 0 0-2.43 0 1.72 1.72 0 0 0 0 2.42q6.25 5.12 12.55 10.18c2.94 2.38 7.11 5.31 6.93 9.56l1.79-1.8a2.11 2.11 0 0 1-1.75-.53l-2.18 2.82a20.65 20.65 0 0 1 7.56 8.17c.74 1.46 1.69 3.45 1.27 5.14-.14.57-1.37 2-1.94 1l-2.34 2.51a21.24 21.24 0 0 1 8.77 12.28c.52 2.12.7 5.09-1.1 6.7-1.25 1.12-3.33 1.55-4.54.18s-3.61.42-2.64 2c3 5.05-1.72 11.07-5.92 13.68-2 1.24-5 2.53-7.25 1.27s-3-4.65-3.51-7.06c-.4-2.08-3.47-1.17-3.15.87.36 2.31-1.21 4.54-3.14 5.64a6.79 6.79 0 0 1-6.79-.28c-5.23-3-5.67-9.61-4-14.83.56-1.69-2-2.69-2.83-1.19-1.1 1.88-3.52 2.3-5.49 1.68-2.52-.79-3.85-3.41-4.32-5.84-1.11-5.73 2.12-11.53 6.5-15 1.31-1-.36-3-1.74-2.25-1.61.88-3.86 2.14-5.55.75s-1.63-3.5-1.17-5.31c.88-3.44 3.08-6.64 5.26-9.39 4.19-5.27 9.34-9.75 13.18-15.3a27 27 0 0 0 4.42-9.92c.2-1-1.25-1.4-1.5-.41z" fill="#000000" class="fill-000000"></path><path d="M589.12 242.32c12.68-1.22 25.86-2.39 37.84 1.94 3.35 1.21 7 3.49 7.17 7 .2 4-4 6.6-7.65 8.19a15.47 15.47 0 0 1 10 4.07c2.6 2.62 3.79 6.79 2.28 10.15-2.16 4.79-8.29 6-13.52 6.41 5.26-1.76 11.39 2.89 11.62 8.43s-4.9 10.52-10.44 10.71-10.73-3.9-12.42-9.22c2.16 1.68 1.86 5.33-.07 7.27s-4.9 2.48-7.63 2.32a19.2 19.2 0 0 1-17.17-25c.31.72-.52 1.52-1.3 1.48a3.31 3.31 0 0 1-2-1.13c-3.86-3.71-6.92-8.42-7.86-13.68s.49-11.09 4.39-14.75" fill="#000000" class="fill-000000"></path><path d="M589.12 243.09c8.25-.69 16.58-1.39 24.85-.57a51 51 0 0 1 12.26 2.67c2.69 1 6.51 2.81 6.69 6.11.2 3.71-4.27 5.84-7.1 7.06-1.31.56-.48 2.34.66 2.44A14.42 14.42 0 0 1 635 264a8.52 8.52 0 0 1 2.95 7.78c-1.12 5.49-8 6.52-12.64 6.87l.4 2.9c3.35-1 6.91.79 8.66 3.71a7.73 7.73 0 0 1-1.34 9.31 9.43 9.43 0 0 1-9.65 2.72 12 12 0 0 1-7.75-7.69l-2.71 1.58a3.2 3.2 0 0 1 .7 3.82 5.34 5.34 0 0 1-3.93 2.78c-3.65.84-7.8-.3-11-2.13a17.79 17.79 0 0 1-8-20.64h-3.11c.42-.32.47-.53.14-.62a.92.92 0 0 1-.31-.2 5.8 5.8 0 0 1-.73-.67c-.48-.47-1-.95-1.4-1.45a27.22 27.22 0 0 1-2.46-3.18 21.91 21.91 0 0 1-3.21-7.46 16.55 16.55 0 0 1 3.63-14 1.25 1.25 0 0 0-1.77-1.76c-5.7 4.53-6.46 13-4.09 19.51a28.39 28.39 0 0 0 5.91 9.49c1.18 1.29 2.64 3 4.55 3.06a2.87 2.87 0 0 0 2.85-3.53c-.36-1.62-2.66-1.45-3.11 0a20.87 20.87 0 0 0 16.22 26.78c3.65.63 7.76.46 10.73-2s3.71-7.46.62-10.06c-1.13-1-3.27-.09-2.71 1.57 2.43 7.24 10.57 12.57 18.09 9.47 7-2.92 10.47-11.7 5.18-17.83a10.5 10.5 0 0 0-10.85-3.4c-1.51.48-1.34 3 .39 2.9 6.22-.5 14.52-2.37 15.51-9.79a11.26 11.26 0 0 0-3.71-9.64 17.3 17.3 0 0 0-10.58-4l.66 2.44c3.09-1.39 6.57-3.4 7.81-6.76 1.32-3.58-.81-6.88-3.75-8.8-3.49-2.29-8-3.26-12-3.94a73.61 73.61 0 0 0-13.83-.86c-5.43.13-10.83.7-16.22 1.29-1 .11-1 1.62 0 1.54z" fill="#000000" class="fill-000000"></path><g fill="#004e98" class="fill-18c4ff"><path d="M579.54 248.42c6.21 2.35 12.6 4.85 17.16 9.89a15.61 15.61 0 0 1 4 7.88 5.35 5.35 0 0 1-.86 4.28c-.78.89-2.39 1.47-3.42.66l-.23 1.73c1.59-.68 3.25.48 4.1 1.76a12.69 12.69 0 0 1 1.54 4.36c.57 2.71.43 7.77-3.55 7.52a1.15 1.15 0 0 0-.58 2.12 6.49 6.49 0 0 1 3.33 5.59 6.89 6.89 0 0 1-3.34 5.65 1 1 0 0 0 1 1.78 8.38 8.38 0 0 0 4.61-7.43 8.78 8.78 0 0 0-4.49-7.55l-.57 2.11a5.65 5.65 0 0 0 5.07-2.91c1.32-2.18 1.15-4.86.65-7.25a12.61 12.61 0 0 0-2.7-6.22 5.53 5.53 0 0 0-6-1.54c-.67.28-1.21 1.26-.49 1.84 2.64 2.11 6.38.68 7.64-2.29 1.46-3.45-.1-7.65-2-10.61-4.61-7.18-12.9-10.19-20.59-12.82-.93-.31-1.29 1.11-.4 1.45zM567.2 246.29c1.91-2.76 6.52-2.82 9.49-3.12a57.24 57.24 0 0 1 6-.28c2.09 0 4.15.27 6.23.35 1.3.06 1.63-2.06.31-2.3a44.22 44.22 0 0 0-13.92.09c-3.37.48-7.75 1.07-9.45 4.47a.78.78 0 0 0 1.34.79zM526.39 800.21c-2.15 3.29-4.17 6.67-6.23 10l1.84.49c-.3-3.3-.77-6.58-1.36-9.84l-2 .83a136.39 136.39 0 0 0 8.36 12c.79 1 2.59-.35 1.8-1.38-2.93-3.8-5.72-7.69-8.29-11.73a1.09 1.09 0 0 0-2 .83c.62 3.07 1.11 6.17 1.48 9.27a1 1 0 0 0 1.83.5c2-3.41 4-6.79 5.84-10.25a.76.76 0 0 0-1.31-.77zM525.52 820.61c-2.41 2.35-4.83 4.7-7.22 7.07l1.62.94a33.78 33.78 0 0 1 2.18-7.62l-2.07-.28c.28 2.21.64 4.41 1.11 6.59.23 1.06.49 2.12.77 3.17a8.29 8.29 0 0 0 1.18 3.2c.6.74 1.64.07 1.7-.7a4.43 4.43 0 0 0-.32-1.64q-.24-.78-.45-1.56c-.28-1-.54-2-.77-3q-.72-3.12-1.15-6.29a1.06 1.06 0 0 0-1-.78 1.11 1.11 0 0 0-1 .78 31.08 31.08 0 0 0-2 7.93c-.11.86 1.12 1.26 1.66.69 2.31-2.45 4.61-4.92 6.9-7.38a.75.75 0 0 0-1.05-1.06zM524.77 839a13.93 13.93 0 0 0-2.25 1.13c-.74.4-1.49.8-2.25 1.16a42.15 42.15 0 0 1-4.5 1.86l1.26 1.63c.93-1.75 1.86-3.51 2.77-5.27l-2.11-.57a29.87 29.87 0 0 0 1.19 8.19 1.13 1.13 0 0 0 2.18-.61A27.35 27.35 0 0 1 520 839a1.14 1.14 0 0 0-2.11-.57c-.92 1.76-1.84 3.52-2.74 5.29a1.12 1.12 0 0 0 .09 1.23 1.1 1.1 0 0 0 1.16.4 49.34 49.34 0 0 0 4.83-2.11q1.13-.57 2.22-1.2a9.51 9.51 0 0 0 2.2-1.53.87.87 0 0 0-.84-1.45z"></path></g><path d="M868.24 456.37c-2.84 16.89 4.87 33.62 12.89 48.76 1.7 3.21 3.81 6.73 7.35 7.61a12.16 12.16 0 0 0 4.42 0c17.46-2.32 33-11.75 49-19.13 3.56-1.65 7.6-3.23 11.32-1.95 3.26 1.11 5.4 4.12 7.74 6.64s5.64 4.86 9 4c5-1.35 5.49-8.2 4.84-13.36-2.2-17.2-5.26-34.46-11.8-50.53-1.26-3.1-2.8-6.33-5.65-8.1-4.77-3-10.94-.65-16.08 1.62a510 510 0 0 1-71 25.27" fill="#000000" class="fill-000000"></path><path d="M867.5 456.16c-1.93 11.07.51 22.11 4.59 32.42a165.77 165.77 0 0 0 7.13 15.29c2 3.87 4.3 8.8 9 10 2.47.62 5.17.06 7.63-.36a74.7 74.7 0 0 0 8.09-1.88 118.43 118.43 0 0 0 15-5.67c5-2.23 9.88-4.67 14.79-7.08 2.51-1.23 5-2.46 7.56-3.65a27.63 27.63 0 0 1 7.6-2.72c5.8-.81 8.47 4.06 12.1 7.54 3.15 3 8.09 5.24 11.91 2 2.89-2.47 3.37-6.83 3.25-10.39a72 72 0 0 0-.81-7.18c-.41-2.95-.84-5.89-1.32-8.83a181.48 181.48 0 0 0-8.4-33.59c-1.64-4.43-3.29-9.72-7.39-12.51s-9.49-1.76-13.88-.12c-5.31 2-10.46 4.49-15.71 6.65q-8.28 3.41-16.67 6.51-16.66 6.16-33.74 11.17c-2.74.8-5.5 1.58-8.26 2.34a1.17 1.17 0 0 0 .62 2.25 513.44 513.44 0 0 0 63.35-22c4.77-2 9.53-4.61 14.6-5.81a11.54 11.54 0 0 1 6.93.15 9.93 9.93 0 0 1 4.86 4.77c2.53 4.62 4.12 9.95 5.64 15 1.59 5.23 2.89 10.54 4 15.89s2 10.93 2.81 16.43c.61 4.29 1.64 8.92.76 13.24a7.24 7.24 0 0 1-2.27 4.38c-1.76 1.4-4.09 1.09-5.94.05-4-2.26-6.05-6.88-10.12-9.11-4.61-2.52-9.69-.59-14.08 1.43-4.69 2.17-9.3 4.49-13.94 6.76-9.31 4.55-18.81 8.93-29 11.18a36.31 36.31 0 0 1-7.75 1.17 7.26 7.26 0 0 1-5.77-3.09 37.23 37.23 0 0 1-3.66-6.18c-1.21-2.31-2.39-4.64-3.52-7-4.68-9.66-8.65-20.06-9-30.92a45.38 45.38 0 0 1 .47-8.07c.15-1-1.31-1.39-1.48-.41z" fill="#000000" class="fill-000000"></path><g fill="#004e98" class="fill-18c4ff"><path d="m902.82 504.79 4.39 3.12c1.44 1 2.95 2 4.34 3.1l.7-1.7a21.28 21.28 0 0 0-8 2.86l1.64 1.64c1.16-1.78 2.25-3.6 3.34-5.42a43.44 43.44 0 0 0 3.14-5.61 1.11 1.11 0 0 0-.64-1.32 1.15 1.15 0 0 0-1.39.46 54.79 54.79 0 0 0-3.28 5.33c-1.07 1.79-2.17 3.55-3.24 5.35a1.21 1.21 0 0 0 1.64 1.64 24.17 24.17 0 0 1 7-3 1 1 0 0 0 .24-1.82c-1.57-.92-3.06-2-4.58-3l-4.58-3c-.84-.55-1.57.76-.78 1.33zM921.59 498.86c1.08.38 2.19.72 3.28 1.08l1.59.54.75.26.46.17.19.07h-.05l-.24-.42v.13-.5c0-.14-.16.06-.17.07s-.21.18-.31.26l-.71.59-1.33 1.11-2.65 2.21 1.73 1.34q1.4-2.61 2.88-5.18c1-1.71 2.09-3.36 3-5.09a1.13 1.13 0 0 0-1.94-1.14c-1.13 1.61-2.07 3.38-3 5.09s-1.93 3.45-2.84 5.2A1.11 1.11 0 0 0 924 506l3.09-2.79 1.5-1.36c.53-.48 1.08-1 .84-1.79s-.92-.84-1.51-1l-1.89-.58c-1.32-.39-2.65-.76-4-1a.76.76 0 0 0-.4 1.46zM936.78 490.19a2.75 2.75 0 0 0 .9 2.13 12.17 12.17 0 0 0 1.39 1.48 9.89 9.89 0 0 1 2.47 3l1.48-1.49a5 5 0 0 0-5.82.52l1.62 1.62 4.67-5.17 2.27-2.51c.74-.82 2.08-1.93 1.56-3.18a1.14 1.14 0 0 0-2.23.3c0 .14-.41.52-.56.69l-1 1.16-2.12 2.39-4.18 4.7a1.15 1.15 0 0 0 1.62 1.62 2.73 2.73 0 0 1 3.11-.26 1.09 1.09 0 0 0 1.48-1.49 10.35 10.35 0 0 0-2.63-3.15c-.48-.44-1-.86-1.44-1.32a7.41 7.41 0 0 1-.65-.72c-.25-.32-.41-.63-.79-.8s-1-.08-1.12.45zM954.82 432.47a101.92 101.92 0 0 0 9.69 52.61 100.32 100.32 0 0 0 7.77 13.39c.6.86 2 0 1.42-.83a101 101 0 0 1-17.47-65.17c.08-.91-1.33-.9-1.41 0z"></path></g><path d="M519.5 296.43a466.61 466.61 0 0 0-69.15 68.16c-2.44 3-5 6.22-5.27 10.06-.26 3.18 1 6.27 2.42 9.15 9 18.8 24.19 36.64 44.73 40.13a11.28 11.28 0 0 0 5.45-.08 13 13 0 0 0 4.71-3.4A491.44 491.44 0 0 0 547 369.87" fill="#ffffff" class="fill-ffffff"></path><path d="M519.12 295.78a411.64 411.64 0 0 0-40.62 36q-9.62 9.68-18.65 19.89-4.52 5.11-8.85 10.33c-2.59 3.12-5.54 6.33-6.67 10.32-1.21 4.28.41 8.42 2.24 12.25a101.09 101.09 0 0 0 5.45 10A81.78 81.78 0 0 0 466.31 412a54.34 54.34 0 0 0 18.62 11.32c3.54 1.23 7.81 2.53 11.58 2 4.31-.57 7.37-4.62 10.24-7.51a490.52 490.52 0 0 0 37.11-41.92c1.42-1.8 2.81-3.61 4.16-5.46.76-1.07-1-2.44-1.83-1.42-5.67 7-11.18 14.06-17 20.88s-11.88 13.48-18.1 20q-4.62 4.83-9.37 9.52c-1.5 1.48-3.07 3.09-5.22 3.48a15.63 15.63 0 0 1-6.11-.57 48 48 0 0 1-18.9-9.16 72.64 72.64 0 0 1-14.74-15.87 99.44 99.44 0 0 1-5.69-9.23c-1.86-3.42-4.06-7.14-4.67-11-.69-4.38 1.94-8.07 4.56-11.29s5.5-6.63 8.32-9.88q8.55-9.89 17.65-19.27a490.77 490.77 0 0 1 38.27-35.54c1.63-1.36 3.25-2.73 4.88-4.08.65-.54-.24-1.72-.92-1.19z" fill="#000000" class="fill-000000"></path><g fill="#ffffff" class="fill-ffffff"><path d="M570.24 441.63a85.33 85.33 0 0 0 8.76 12.23 66.67 66.67 0 0 0 10.81 10.43c.81.59 1.82-.72 1.07-1.39a118.46 118.46 0 0 1-10.54-10.12 82.32 82.32 0 0 1-8.72-11.93.77.77 0 0 0-1.33.78z"></path><path d="M579.08 451.52a34.22 34.22 0 0 0 3.9.69l2 .31 1.07.17a1.72 1.72 0 0 1 .64.16c.28.2.17.76.17 1.06v2c0 1.38-.05 2.77 0 4.15a.89.89 0 0 0 1.77 0c.09-1.53 0-3.08 0-4.62v-2.17a2.42 2.42 0 0 0-.72-1.71 3.29 3.29 0 0 0-1.8-.6l-2.33-.31a42.07 42.07 0 0 0-4.46-.54.7.7 0 0 0-.19 1.37zM620.12 449c6.22-2.55 12.4-5.21 18.56-7.91 1-.44.13-1.9-.86-1.47-6.12 2.62-12.21 5.28-18.27 8-.75.35-.2 1.67.57 1.35zM660.45 433.55a89.5 89.5 0 0 1 17.26-9.55c.81-.34.23-1.76-.61-1.44a75.09 75.09 0 0 0-17.42 9.7c-.78.57 0 1.88.77 1.31zM714.47 497.69a22.64 22.64 0 0 0-7.27 10.69c-.31 1 1.26 1.44 1.61.44a22.94 22.94 0 0 1 6.74-10.06c.75-.63-.33-1.68-1.08-1.07zM717.31 504.27l-2.51 4.93a.8.8 0 1 0 1.39.81l2.45-5a.79.79 0 0 0-.28-1.05.77.77 0 0 0-1.05.28z"></path></g><path d="M480.06 333.36a189.36 189.36 0 0 1 16.84-16.8c5.91-5.11 12.27-9.66 18.52-14.33a116.74 116.74 0 0 0 10.24-8.17c1-.9-.33-2.65-1.42-1.85-3.12 2.3-6.13 4.75-9.22 7.1s-6.34 4.74-9.49 7.15a137.83 137.83 0 0 0-17.41 15.42c-3.14 3.38-6.12 6.91-9.14 10.41-.63.73.42 1.8 1.08 1.07z" fill="#000000" class="fill-000000"></path><path d="m165.51 343.41 88.89-3.32 52.34-1.95c2.72-.1 5.61-.15 7.93 1.26 3.19 1.94 4.29 6 4.91 9.67.47 2.75.81 5.63 0 8.31s-3 5.12-5.81 5.34c-1.78.14-3.67-.61-5.3.13-1.37.62-2.1 2.1-2.73 3.48L286.6 408.5c-1 2.23-2.08 4.53-3.93 6.12s-4.48 2.35-6.94 2.95c-33.38 8.11-68.18 7.51-102.52 6.87-5-.1-10.09-.24-14.49-2.5-5.07-2.6-8.39-7.62-11.3-12.52a185.42 185.42 0 0 1-15.54-32.7c-1.65-4.68-3.61-10-8.24-11.78-1.47-.56-3.09-.69-4.57-1.23-5.56-2-7.3-10-3.92-14.91 2.88-4.16 8.19-5.74 13-5.23 5.87.6 12 .45 17.95.76 9 .46 17.74-.86 26.69-1.19" fill="#ffffff" class="fill-ffffff"></path><path d="M165.51 344.13q27.47-.84 54.93-1.8l54.65-2 27.41-1c2.1-.07 4.2-.2 6.3-.19a9.72 9.72 0 0 1 5.61 1.36c2.77 1.92 3.55 5.7 4.07 8.81.63 3.74 1 8.49-2.27 11.14-2.92 2.32-6.89-.53-9.66 2.29a16 16 0 0 0-2.65 4.73l-2.79 6.12-5.69 12.46q-2.85 6.22-5.67 12.46c-1.79 4-3.41 8.07-5.47 11.89a9.87 9.87 0 0 1-3.7 4.11 19.42 19.42 0 0 1-5.18 1.8c-4.26 1-8.56 1.93-12.87 2.71-17.35 3.14-35 4.22-52.57 4.47-8.73.12-17.47.05-26.2-.09-4.32-.07-8.64-.1-13-.24-4-.13-8.24-.5-11.85-2.46a23.46 23.46 0 0 1-7.86-7.68c-2.26-3.29-4.21-6.81-6.13-10.3a179.24 179.24 0 0 1-10.84-23.31c-2.16-5.73-3.89-13.43-10.37-15.73-1.74-.62-3.67-.67-5.29-1.62a7.25 7.25 0 0 1-2.66-2.78 9.88 9.88 0 0 1-.66-8 10.37 10.37 0 0 1 7-6.09c3.66-1.11 7.4-.35 11.14-.18a223.14 223.14 0 0 0 26.5.06c4.36-.31 8.71-.72 13.09-.89 1.46-.06 1.47-2.34 0-2.29-9.24.37-18.39 1.52-27.66 1.11-4.7-.21-9.41-.17-14.11-.48-3.72-.24-7.21-.61-10.77.81-6 2.36-9.43 8.48-7.51 14.77a10.09 10.09 0 0 0 5.15 6.29c1.78.83 3.78.88 5.58 1.65a9.06 9.06 0 0 1 3.71 3.18c2 2.9 3 6.38 4.24 9.68 1.51 4.09 3.19 8.12 5 12.08a163.15 163.15 0 0 0 12.29 22.67 28.84 28.84 0 0 0 7.68 8.19 23.52 23.52 0 0 0 11.29 3.43c4.37.36 8.78.29 13.16.37q6.85.12 13.7.18c18.29.14 36.63-.24 54.81-2.43a227.29 227.29 0 0 0 26.67-4.73c3.81-.93 7.26-2.26 9.53-5.65a36.62 36.62 0 0 0 2.7-5.34l3-6.58q5.88-12.92 11.72-25.86l3-6.58c.66-1.47 1.32-3.85 2.81-4.72s4 .1 5.83-.25a7.43 7.43 0 0 0 4.13-2.49c2.62-3.06 2.72-7.11 2.18-10.91-.48-3.42-1.17-7.12-3.39-9.89-2.42-3-6.12-3.57-9.77-3.48-4.67.13-9.33.36-14 .54l-57.11 2.21q-28.59 1.11-57.18 2.32l-14 .61c-.92.05-.93 1.47 0 1.44z" fill="#ffffff" class="fill-ffffff"></path><path d="M122.62 344.24q37.82-.28 75.62-1.19t75.62-2.16q10.47-.33 20.95-.7 5.25-.17 10.48-.36c3.66-.12 7.35-.11 11-.56a1.31 1.31 0 0 0 0-2.62c-3.16-.15-6.32.09-9.48.21l-9.48.37-19 .7q-18.84.66-37.68 1.26c-25.21.81-50.42 1.46-75.62 2.24-14.14.43-28.29.81-42.43 1.23a.79.79 0 0 0 0 1.58zM173.61 371.22c1.89 8.9 5.21 17.66 8.68 26.06a1.66 1.66 0 0 0 3.2-.88 119.63 119.63 0 0 0-7.21-27.4c-.33-.83-1.42-1.63-2.32-.94a2.87 2.87 0 0 0-1.26 2.78 4 4 0 0 0 .5 1.46c.23.41 1 1.06.91 1.56-.31 1.73 2.23 2.49 2.66.74a3.56 3.56 0 0 0-.28-2.52c-.16-.34-.4-.69-.53-1.05-.21-.56.08-.61-.4-.24l-2.33-.95a112.12 112.12 0 0 1 7 27l3.26-.44c-1.72-4.34-3.46-8.68-5.13-13s-3.2-8.65-5-12.86c-.44-1-1.92-.26-1.71.72zM194 371.22c1.88 8.9 5.21 17.66 8.68 26.06a1.66 1.66 0 0 0 3.2-.88 119.63 119.63 0 0 0-7.19-27.4c-.33-.83-1.43-1.63-2.32-.94a2.87 2.87 0 0 0-1.26 2.78 3.84 3.84 0 0 0 .5 1.46c.23.41 1 1.06.91 1.56-.31 1.73 2.23 2.49 2.66.74a3.61 3.61 0 0 0-.28-2.52c-.16-.34-.4-.69-.53-1.05-.22-.56.08-.61-.41-.24l-2.32-.95a112.12 112.12 0 0 1 7 27l3.26-.44c-1.73-4.34-3.46-8.68-5.13-13s-3.2-8.65-5-12.86c-.45-1-1.92-.26-1.71.72zM214.43 371.22c1.88 8.9 5.21 17.66 8.67 26.06a1.66 1.66 0 0 0 3.2-.88 119.1 119.1 0 0 0-7.2-27.4c-.33-.83-1.43-1.63-2.32-.94a2.83 2.83 0 0 0-1.26 2.78 4 4 0 0 0 .49 1.46c.24.41 1 1.06.91 1.56-.3 1.73 2.24 2.49 2.67.74a3.61 3.61 0 0 0-.28-2.52c-.16-.34-.4-.69-.53-1.05-.22-.56.08-.61-.41-.24l-2.32-.95a112.1 112.1 0 0 1 7 27l3.26-.44c-1.72-4.34-3.45-8.68-5.12-13s-3.2-8.65-5-12.86c-.45-1-1.92-.26-1.71.72zM233.69 371.22c1.88 8.9 5.21 17.66 8.68 26.06a1.66 1.66 0 0 0 3.2-.88 119.63 119.63 0 0 0-7.21-27.4c-.33-.83-1.43-1.63-2.32-.94a2.87 2.87 0 0 0-1.26 2.78 4 4 0 0 0 .5 1.46c.23.41 1 1.06.91 1.56-.31 1.73 2.23 2.49 2.66.74a3.61 3.61 0 0 0-.28-2.52c-.16-.34-.4-.69-.53-1.05-.21-.56.08-.61-.41-.24l-2.32-.95a112.12 112.12 0 0 1 7 27l3.26-.44c-1.73-4.34-3.46-8.68-5.13-13s-3.2-8.65-5-12.86c-.45-1-1.92-.26-1.71.72zM254.1 371.22c1.88 8.9 5.21 17.66 8.67 26.06a1.67 1.67 0 0 0 3.21-.88 119.63 119.63 0 0 0-7.21-27.4c-.33-.83-1.43-1.63-2.32-.94a2.83 2.83 0 0 0-1.26 2.78 4 4 0 0 0 .49 1.46c.24.41 1 1.06.91 1.56-.3 1.73 2.24 2.49 2.67.74a3.61 3.61 0 0 0-.28-2.52c-.16-.34-.4-.69-.53-1.05-.22-.56.08-.61-.41-.24l-2.32-.95a112.1 112.1 0 0 1 7 27l3.27-.44c-1.73-4.34-3.46-8.68-5.13-13s-3.2-8.65-5-12.86c-.45-1-1.92-.26-1.71.72z" fill="#000000" class="fill-000000"></path><path d="M146.51 344.91c2.87-16 5.45-32 10.23-47.51a145.94 145.94 0 0 1 8.9-22.62c1.74-3.44 3.49-7.29 6.35-9.94s6.79-3.81 10.43-4.92a136.89 136.89 0 0 1 50.25-5.56 106 106 0 0 1 12.33 1.53c3.67.72 7.11 2 9.49 5.06a25.45 25.45 0 0 1 4.07 9.14c1.13 4.07 2.05 8.2 3 12.31 4.05 17.33 7.53 34.78 10.6 52.31q.57 3.27 1.18 6.53c.29 1.5 2.9 1.18 2.7-.36-1.23-9.15-3-18.24-4.72-27.29s-3.68-18.16-5.75-27.2Q264 279.67 262.4 273a51.31 51.31 0 0 0-3.32-10.27 16.6 16.6 0 0 0-7.16-7.72c-3.57-1.83-7.64-2.33-11.57-2.85A138.93 138.93 0 0 0 188 255.3a85.92 85.92 0 0 0-12 3.75 19.25 19.25 0 0 0-9 7.34 77.76 77.76 0 0 0-5.69 11c-1.68 3.76-3.2 7.6-4.55 11.49-5.56 16-8.42 32.72-10.93 49.38-.31 2.07-.62 4.14-.9 6.21-.15 1 1.41 1.52 1.6.45zM531.85 288.48c-13.21-22.07-26.79-43.91-40.25-65.82-3.31-5.39-6.61-10.79-10-16.15a101.74 101.74 0 0 0-9.69-13.51c-6.67-7.55-16.38-13.74-26.86-12.83a16.12 16.12 0 0 0-7.64 2.27c-1.88 1.31-3.62 3.59-2.57 6s4.55 3.91 6.93 4.7a19.07 19.07 0 0 0 8.68.72l-1.31-1.71c-4 7.58-2 17.63 4.88 22.86 1 .75 2.27-.91 1.32-1.71-5.66-4.83-7.71-13.26-4.19-20a1.18 1.18 0 0 0-1.31-1.71 16.36 16.36 0 0 1-7.44-.76 16.06 16.06 0 0 1-3.22-1.52c-.91-.56-2.37-1.33-2.23-2.58.23-2.13 3.32-3.13 5-3.57a20.4 20.4 0 0 1 6.92-.5c9.95.9 18.05 7.81 23.9 15.42 3.11 4.06 5.8 8.43 8.49 12.77q4.65 7.5 9.36 15l18.64 29.74c7.06 11.24 14.09 22.51 21.27 33.68.52.8 1.79.07 1.3-.76z" fill="#000000" class="fill-000000"></path><path d="M449 198.81c.26-2.47-1.41-4.32-3.31-5.64-2.07-1.44-4.33-1.59-6.78-1.35-5.71.54-11.43.93-17.13 1.5-12 1.21-24 2.72-36 4.25-6 .76-11.95 1.53-17.93 2.26-5.4.65-10.84.95-16.23 1.64-8.81 1.13-18.88 3.26-24.6 10.71-4.92 6.41-5.13 14.86-5.12 22.59q0 18.09 1.67 36.13c1.09 11.83 2.63 23.66 4.49 35.4.78 4.88 1.81 9.71 2.77 14.56.69 3.52 1.37 7.05 2.31 10.52a32.35 32.35 0 0 0 4 9.81c2.29 3.34 6 4.84 9.88 5.36 4.79.64 9.57-.17 14.31-.79 5.84-.76 11.71-1.16 17.56-1.72 2.88-.28 5.75-.61 8.62-1 1.72-.25 1-2.87-.73-2.63-5.68.8-11.41 1.22-17.13 1.74-5 .46-9.92 1.25-14.9 1.72-4.35.41-9.39.52-13.22-2-2.41-1.57-3.64-4.74-4.56-7.34-2.36-6.66-3.48-13.86-4.84-20.79-2.2-11.24-3.67-22.67-5-34.05s-2.15-22.55-2.53-33.86c-.18-5.39-.37-10.82-.2-16.21a36.19 36.19 0 0 1 1.68-10.62 18.58 18.58 0 0 1 5.58-8.2c3.43-2.88 7.83-4.43 12.12-5.5a102.57 102.57 0 0 1 15.41-2.3c5.36-.49 10.68-1.13 16-1.83 11.38-1.47 22.76-3 34.16-4.36 5.6-.67 11.21-1.27 16.82-1.84q4.31-.43 8.62-.83c2.41-.21 5-.82 7.46-.48s5.44 2.44 5.28 5.14c-.06 1 1.37.93 1.47 0zM453 214c2.73 9.45 3.53 19.28 4.4 29.05.89 10 1.83 20.11 2.74 30.16s2 20.16 2.87 30.24c.41 4.68.66 9.5-.61 14.07a22.34 22.34 0 0 1-6.13 10c-7.38 7.12-17.58 8.66-27.43 8.44-1.5 0-1.46 2.19 0 2.31 8.91.7 18.64-1.06 26-6.42a27 27 0 0 0 7.94-8.87 27.35 27.35 0 0 0 3-13.09 151.6 151.6 0 0 0-1.19-15.19l-1.55-15.83c-1-10.55-2.14-21.1-3.23-31.65-1.17-11.27-2-22.74-5.37-33.63a.71.71 0 0 0-1.44.41z" fill="#000000" class="fill-000000"></path><path d="M457.38 229.16c4.82 1.94 7.68 6.32 9.72 10.89 2.31 5.18 3.68 10.77 5.43 16.16q6.23 19.25 14.15 37.88c3 7 6.07 13.93 9.41 20.75.7 1.41 2.76.18 2.1-1.23-5.95-12.61-11.52-25.47-16.44-38.61-2.45-6.52-4.8-13.08-7-19.7-1.8-5.43-3.31-11-5.75-16.2-2.33-5-5.93-9.53-11.23-11.44-.93-.34-1.29 1.1-.4 1.46zM149.91 501.29c15.38 1 34.12 1.66 45-11.45 1.51-1.82 3.4-5.66.41-7.16s-5.83 2.2-6.85 4.48c-2.3 5.15-.59 12.21 4.77 14.71 5.93 2.78 13.73-.67 15.55-7a1.32 1.32 0 0 0-1.61-1.6c-3.73.71-5.26 5.76-3.12 8.7 1.62 2.23 4.58 2.14 7.06 2.16h9.81c13.42 0 26.84-.14 40.22-1.19 7.41-.58 14.8-1.42 22.14-2.6 1.11-.17.64-1.85-.46-1.68-23.55 3.58-47.47 3.2-71.22 2.86-1.94 0-5.36.41-5.84-2.15a3 3 0 0 1 2.11-3.63l-1.61-1.6c-1.23 4.34-6.33 7-10.65 5.85-4.57-1.17-6.52-6.39-5.34-10.66a8.1 8.1 0 0 1 1.36-2.8c.42-.55 2.35-2.68 2.91-1.45.4.89-.62 2.32-1.12 2.95a24.66 24.66 0 0 1-3.12 3.26 35 35 0 0 1-16.22 7.54c-8 1.6-16.16 1.19-24.21.8-1-.05-1 1.53 0 1.6zM150.27 554.69q22.47.43 44.93.83l22.47.37c6.81.11 13.9.61 20.51-1.37 5.83-1.75 11.19-5.76 13.09-11.72.29-.89-1-1.69-1.61-.94a7.6 7.6 0 0 0 1.91 11c4 2.55 9.55.39 11.8-3.52l-1.4.37a26.39 26.39 0 0 0 20.29 3.4c1.21-.28.7-2.12-.52-1.86A25.2 25.2 0 0 1 263 548a1 1 0 0 0-1.4.37c-1.65 2.9-5.65 4.67-8.76 3-2.68-1.47-3.8-5.59-1.82-8.06l-1.61-.94c-1.62 5.34-6.56 8.88-11.72 10.44-6.59 2-13.72 1.44-20.52 1.35q-21.34-.3-42.68-.56l-24.22-.26a.72.72 0 0 0 0 1.44zM153.84 607.94a641.47 641.47 0 0 0 72.57-2.4c6.89-.62 13.78-1.31 20.64-2.23 1-.13 1-1.74 0-1.62-24.09 2.69-48.2 4.59-72.45 4.88q-10.38.12-20.76-.08a.73.73 0 0 0 0 1.45z" fill="#000000" class="fill-000000"></path><g fill="#004e98" class="fill-18c4ff"><path d="M550.34 321.56a45.85 45.85 0 0 1 2.84 15.6 50.62 50.62 0 0 1-2.56 15.63c-.34 1.08 1.27 1.48 1.66.46 3.9-10.13 3.31-22.05-.6-32.06-.32-.83-1.66-.48-1.34.37zM550.38 360.72l1.49-.37a.78.78 0 0 0 .46-.34.81.81 0 0 0 .07-.59.75.75 0 0 0-.35-.45.78.78 0 0 0-.58-.08l-1.48.38a.79.79 0 0 0-.45.35.81.81 0 0 0-.08.57.77.77 0 0 0 .92.53zM610.21 305a556.26 556.26 0 0 1 17.54 57c1.38 5.5 2.66 11 3.93 16.55.25 1.1 1.9.63 1.68-.47a457.89 457.89 0 0 0-15.92-57.46q-2.76-8.06-5.82-16c-.33-.87-1.73-.5-1.41.38zM633.09 386.75c2.08-1.45 4-3.11 6-4.68a.86.86 0 0 0 0-1.23.88.88 0 0 0-1.23 0c-1.92 1.55-3.91 3-5.74 4.7-.63.58.21 1.71.94 1.21z"></path></g></svg>